<?xml version="1.0" standalone="no"?>
<!DOCTYPE svg PUBLIC "-//W3C//DTD SVG 20010904//EN"
 "http://www.w3.org/TR/2001/REC-SVG-20010904/DTD/svg10.dtd">
<svg version="1.0" xmlns="http://www.w3.org/2000/svg"
 width="259.000000pt" height="194.000000pt" viewBox="0 0 259.000000 194.000000"
 preserveAspectRatio="xMidYMid meet">
<metadata>
Created by potrace 1.10, written by Peter Selinger 2001-2011
</metadata>
<g transform="translate(0.000000,194.000000) scale(0.100000,-0.100000)"
fill="#000000" stroke="none">
<path d="M1755 1911 c-6 -6 -221 -117 -480 -247 -259 -131 -573 -290 -700
-355 l-230 -118 3 -49 c4 -55 -16 -105 -45 -117 -16 -6 -15 -8 6 -16 16 -6 21
-14 17 -25 -5 -13 -1 -15 16 -11 13 2 126 28 251 56 125 28 230 51 232 51 12
0 3 19 -12 24 -10 4 -28 -2 -45 -14 -15 -11 -28 -16 -28 -11 0 6 -20 3 -47 -6
-27 -8 -61 -15 -76 -15 -15 1 -25 -3 -22 -7 2 -5 -26 -14 -63 -20 -37 -7 -77
-14 -89 -17 -17 -3 -24 1 -29 20 -10 41 -1 59 41 81 22 11 42 22 45 25 3 3
111 58 240 124 550 277 826 418 834 427 14 13 26 11 26 -4 0 -7 14 -39 31 -72
17 -33 56 -109 86 -170 84 -170 101 -201 122 -227 19 -24 4 -22 -44 5 -22 12
-44 32 -50 45 -8 19 -25 31 -25 18 0 -42 63 -96 111 -96 21 0 28 -6 32 -26 3
-20 1 -24 -12 -19 -9 3 -1 -6 17 -20 36 -30 42 -50 12 -40 -14 4 -20 2 -20 -8
0 -8 9 -17 21 -20 12 -3 18 -3 15 1 -4 3 30 25 75 48 114 59 132 79 124 129
-3 22 -9 42 -13 45 -4 3 -34 59 -65 125 -32 66 -63 129 -69 140 -6 10 -28 55
-50 100 -21 44 -43 88 -49 98 -5 10 -7 23 -3 30 4 7 3 9 -1 4 -5 -4 -16 0 -26
9 -23 20 -64 13 -136 -24 -488 -250 -655 -332 -663 -327 -6 4 -9 2 -8 -4 4
-14 -191 -113 -205 -104 -6 3 -8 2 -4 -3 3 -5 -36 -29 -86 -54 -51 -25 -94
-47 -97 -50 -3 -3 -45 -25 -95 -50 -49 -24 -100 -53 -112 -64 -25 -21 -29 -55
-13 -87 14 -25 -14 -27 -30 -1 -9 15 -10 14 -5 -5 4 -14 2 -23 -4 -23 -6 0
-11 7 -11 15 0 8 -5 15 -11 15 -6 0 -5 6 3 14 8 7 20 33 28 57 8 24 19 47 25
51 6 5 6 8 -2 8 -7 0 -17 -8 -23 -17 -10 -16 -11 -16 -5 2 4 11 10 28 12 38 3
10 12 16 19 13 8 -3 14 -1 14 4 0 6 5 10 10 10 6 0 20 9 32 20 15 14 25 17 39
10 23 -13 39 -13 19 0 -24 15 -2 24 27 11 26 -10 27 -10 9 4 -11 8 -18 16 -15
17 43 27 92 48 99 43 6 -3 10 -1 10 5 0 7 7 10 15 6 9 -3 19 3 25 14 6 11 16
20 23 20 7 0 6 -4 -3 -10 -10 -6 -11 -10 -2 -10 21 0 27 4 24 17 -2 8 7 13 22
13 14 0 28 4 31 10 4 6 -1 7 -12 4 -15 -5 -16 -4 -3 5 8 6 25 11 36 11 12 0
32 6 45 13 36 19 83 50 90 60 3 4 12 7 20 5 8 -2 13 2 12 9 -3 11 54 33 87 33
13 0 13 1 0 10 -12 8 -11 10 8 10 12 0 34 7 47 16 16 10 35 14 52 10 l28 -6
-25 15 c-29 17 -23 19 17 5 26 -9 27 -9 9 5 -18 13 -15 20 6 16 13 -2 93 42
101 56 4 7 14 13 22 13 17 0 197 90 206 103 4 5 16 4 27 -2 25 -14 43 -14 22
-1 -13 9 -13 10 0 10 13 0 13 1 0 10 -17 11 -9 13 40 11 21 -1 22 1 7 7 -17 7
-17 9 5 20 13 7 43 19 68 27 25 7 36 14 25 15 -16 1 -14 4 10 14 21 9 32 10
37 2 5 -7 8 -7 8 2 0 7 5 10 11 6 8 -5 6 -10 -5 -16 -27 -15 -18 -24 24 -23
28 0 40 -4 40 -13 0 -10 9 -13 30 -10 17 3 30 1 30 -4 0 -4 8 -8 18 -9 11 0
12 -2 4 -6 -10 -4 -9 -9 5 -20 17 -14 17 -14 -2 -8 -15 5 -17 3 -9 -5 14 -14
56 -10 61 6 2 6 -6 14 -18 17 -17 5 -20 11 -15 30 5 23 2 25 -42 30 -26 4 -58
10 -71 13 -18 6 -22 4 -16 -6 5 -9 4 -11 -4 -6 -6 4 -9 12 -5 17 6 10 -23 49
-36 49 -3 0 -10 -4 -15 -9z m64 -148 c11 -9 18 -20 15 -25 -3 -4 0 -13 6 -20
5 -7 64 -123 131 -256 114 -231 119 -245 105 -267 -20 -30 -83 -68 -97 -59 -7
4 -9 3 -6 -3 9 -14 -51 -39 -63 -27 -5 5 -62 115 -127 244 -65 129 -123 242
-128 250 -5 8 -10 20 -11 25 -1 6 -10 26 -21 45 l-20 35 71 37 c79 41 116 46
145 21z"/>
<path d="M1766 1711 c-3 -5 3 -11 14 -14 11 -3 20 -10 20 -16 0 -18 -29 -25
-45 -11 -12 10 -15 9 -15 -8 0 -26 -37 -49 -53 -33 -8 8 -8 14 1 23 16 16 15
29 -2 22 -19 -7 -26 -40 -13 -53 17 -17 52 -13 72 9 10 11 20 18 23 15 3 -2
13 0 23 6 23 12 25 55 3 63 -20 8 -22 8 -28 -3z"/>
<path d="M1816 1607 c7 -20 -84 -61 -102 -46 -17 14 -18 8 -2 -26 12 -27 28
-34 28 -11 0 7 27 28 60 45 58 31 70 51 30 51 -12 0 -17 -5 -14 -13z"/>
<path d="M1856 1532 c-11 -11 -6 -21 8 -16 8 3 17 0 21 -6 14 -23 -15 -35 -75
-32 -65 3 -71 -2 -46 -47 8 -14 16 -19 20 -13 3 6 2 13 -4 17 -5 3 -10 12 -10
20 0 11 11 13 50 8 56 -7 80 6 80 42 0 21 -31 41 -44 27z"/>
<path d="M1895 1430 c3 -5 12 -7 19 -4 24 9 28 -14 5 -29 -13 -10 -34 -13 -59
-10 -22 3 -46 3 -55 -1 -14 -5 -14 -8 0 -36 20 -38 28 -38 20 0 l-6 29 48 -5
c40 -5 51 -3 67 15 24 26 14 51 -19 51 -15 0 -24 -4 -20 -10z"/>
<path d="M1897 1324 c-38 -20 -48 -30 -45 -47 4 -26 36 -34 69 -17 16 9 20 18
15 40 -3 20 -1 30 10 34 23 9 36 -3 28 -27 -6 -20 -5 -21 10 -6 21 20 11 49
-18 49 -11 -1 -43 -12 -69 -26z m28 -24 c9 -14 -44 -45 -56 -33 -7 7 -5 16 6
27 18 18 41 21 50 6z"/>
<path d="M2010 1272 c0 -4 6 -14 12 -20 10 -10 10 -15 -2 -22 -8 -5 -22 -10
-31 -10 -26 0 -89 -29 -89 -41 0 -7 7 -8 18 -4 48 21 89 34 105 35 23 0 31 23
17 49 -10 21 -30 29 -30 13z"/>
<path d="M1956 1736 c3 -9 10 -16 15 -16 5 0 9 -5 9 -10 0 -7 -8 -7 -22 1 -16
8 -12 1 12 -22 19 -19 37 -43 38 -54 2 -11 9 -23 14 -26 6 -4 8 -11 4 -17 -3
-6 5 -19 19 -30 13 -11 22 -22 19 -24 -9 -10 8 -58 18 -52 6 4 8 -2 6 -12 -2
-11 6 -27 17 -37 16 -15 17 -18 3 -13 -12 3 -15 1 -12 -9 3 -8 13 -11 21 -8
10 4 14 2 10 -4 -6 -10 37 -105 45 -98 2 2 9 -10 16 -28 l11 -32 -19 24 c-22
26 -26 21 -7 -9 8 -15 9 -23 1 -28 -15 -10 -25 -52 -12 -52 6 0 5 -6 -2 -15
-10 -12 -10 -18 -1 -29 10 -11 9 -16 -4 -24 -9 -5 -16 -13 -16 -18 0 -5 -6 -9
-13 -9 -8 0 -23 -8 -33 -18 -11 -9 -27 -17 -35 -17 -9 0 -18 -7 -21 -14 -5
-14 -28 -22 -109 -40 -25 -6 -28 -4 -28 20 0 23 -2 24 -15 10 -20 -20 -19 -33
5 -39 27 -7 25 -25 -4 -38 -14 -7 -24 -19 -23 -30 1 -10 4 -16 8 -13 4 2 10 0
14 -6 3 -5 3 -10 -2 -10 -4 0 -8 -13 -8 -30 0 -16 5 -30 11 -30 7 0 15 -27 19
-65 3 -36 11 -65 16 -65 6 0 7 -9 4 -20 -4 -11 -1 -37 6 -58 17 -51 18 -84 2
-78 -8 3 -15 -5 -19 -20 -5 -19 -11 -23 -28 -19 -13 4 -17 3 -8 -2 8 -7 10
-24 6 -56 -5 -37 -11 -47 -25 -47 -11 0 -19 -3 -19 -8 0 -4 -18 -7 -40 -7 -22
0 -40 3 -40 7 0 5 -5 8 -12 8 -6 0 -3 -9 7 -20 15 -16 15 -20 3 -15 -8 3 -44
-1 -80 -9 -36 -8 -76 -13 -89 -10 -21 4 -22 3 -4 -5 16 -7 7 -10 -40 -15 -33
-4 -78 -11 -100 -16 -37 -7 -38 -8 -10 -10 31 -3 -110 -32 -152 -32 -13 0 -23
-5 -23 -10 0 -6 -21 -8 -52 -6 -29 3 -43 3 -30 1 42 -8 24 -26 -20 -20 -23 3
-36 2 -29 -3 9 -5 -1 -9 -28 -12 -22 -2 -41 0 -41 4 0 5 -5 8 -11 8 -6 0 -9
-6 -7 -12 6 -17 -77 -39 -114 -32 -30 6 -39 -12 -10 -19 15 -4 15 -5 0 -6 -9
0 -25 7 -34 16 -16 16 -17 16 -12 1 5 -12 -1 -17 -26 -22 -18 -4 -42 -4 -52 0
-14 4 -16 3 -5 -4 15 -11 -1 -15 -94 -28 -27 -4 -72 -15 -98 -25 -26 -11 -68
-19 -93 -19 -25 0 -43 -4 -40 -9 9 -14 -57 -20 -73 -7 -11 8 -13 8 -7 -1 11
-19 -5 -16 -21 5 -14 16 -14 16 -9 -2 4 -12 -5 -6 -26 16 -18 19 -46 40 -63
46 -29 10 -29 10 -5 12 l25 1 -25 10 c-17 7 -21 12 -12 18 10 6 10 11 -3 21
-8 7 -15 23 -15 36 0 12 -5 26 -11 30 -6 3 -8 15 -5 26 2 11 -2 31 -10 44 -9
13 -13 28 -10 33 8 12 -4 62 -13 57 -3 -2 -7 15 -8 37 -1 23 -6 43 -13 45 -8
3 -7 8 2 19 10 12 9 17 -5 24 -9 6 -17 15 -17 20 0 6 4 7 10 4 6 -3 7 1 4 9
-3 9 -9 14 -13 11 -9 -5 -7 52 2 61 3 3 -3 15 -14 27 -22 24 -24 37 -6 37 7 0
4 7 -7 15 -12 9 -15 15 -7 15 10 0 10 4 3 13 -8 9 -2 20 19 41 16 16 29 35 29
43 0 7 5 13 11 13 8 0 8 4 0 14 -10 12 -8 18 11 29 30 20 155 50 171 42 6 -4
3 1 -8 10 -21 16 -20 16 -147 -12 -65 -14 -67 -15 -62 -41 8 -39 -11 -80 -46
-100 -34 -20 -37 -30 -13 -48 15 -10 16 -15 5 -25 -16 -17 -15 -29 2 -29 19 0
27 -25 13 -39 -9 -10 -7 -16 8 -27 16 -12 18 -18 7 -34 -10 -16 -8 -23 10 -40
20 -18 21 -23 9 -42 -12 -19 -11 -23 10 -39 19 -14 22 -20 12 -30 -17 -17 -16
-39 1 -39 17 0 29 -27 16 -35 -15 -9 -12 -45 4 -45 17 0 29 -27 16 -35 -16
-10 -12 -35 5 -35 18 0 20 -37 3 -42 -19 -7 2 -30 22 -25 13 3 16 0 13 -14 -3
-11 -9 -22 -14 -25 -19 -12 -8 -34 17 -34 37 0 81 -29 95 -62 6 -16 19 -28 29
-28 10 0 109 22 221 49 112 27 294 70 404 96 287 68 454 108 665 159 102 24
201 47 221 51 29 5 36 11 32 24 -9 36 17 100 52 128 38 30 44 43 20 43 -8 0
-15 9 -15 20 0 11 5 20 10 20 6 0 10 5 10 10 0 6 -5 10 -11 10 -6 0 -17 6 -24
14 -12 12 -11 16 8 30 l22 15 -22 7 c-26 7 -29 24 -10 43 10 10 9 14 -5 22
-19 11 -25 49 -8 49 18 0 10 22 -10 27 -20 5 -29 43 -10 43 6 0 10 7 10 15 0
8 -6 15 -14 15 -41 0 -18 24 61 64 48 24 116 59 149 76 l62 33 4 57 c3 44 11
67 32 94 25 33 25 36 8 36 -22 0 -37 26 -22 35 17 11 11 25 -11 25 -17 0 -20
5 -17 25 4 17 1 25 -9 25 -19 0 -29 30 -12 40 10 7 6 12 -15 19 -24 10 -27 15
-21 41 4 17 3 30 -2 29 -28 -5 -34 2 -28 31 6 26 4 30 -15 30 -19 0 -21 4 -16
25 5 19 2 25 -10 25 -12 0 -15 7 -11 26 4 20 0 28 -15 32 -14 3 -19 11 -15 28
2 14 -2 25 -12 28 -9 3 -22 9 -29 12 -8 4 -10 0 -6 -10z"/>
<path d="M1500 1470 c-30 -16 -59 -31 -63 -32 -5 -2 -5 -11 -1 -21 5 -13 13
-17 33 -12 24 5 29 0 59 -55 18 -34 32 -67 32 -74 0 -16 -50 -19 -50 -3 0 6
-5 4 -11 -6 -20 -35 -1 -34 149 10 53 15 73 43 30 43 -17 0 -19 -3 -9 -9 9 -6
10 -11 2 -15 -6 -4 -15 -4 -21 -1 -5 3 -10 1 -10 -4 0 -30 -24 -3 -60 69 -45
90 -45 90 -26 90 19 0 28 14 20 34 -8 20 -8 20 -74 -14z"/>
<path d="M1317 1374 l-47 -24 22 -43 c12 -23 28 -55 35 -71 13 -27 12 -28 -12
-22 -14 4 -25 2 -25 -4 0 -5 -8 -10 -17 -10 -10 0 -25 -5 -33 -11 -11 -7 -6
-9 20 -4 65 12 205 48 210 54 3 3 3 5 1 4 -2 -2 -10 6 -18 17 -13 19 -16 19
-44 4 -17 -8 -32 -14 -33 -12 -1 2 -12 22 -24 45 l-23 43 35 16 c21 11 32 22
29 30 -7 19 -20 17 -76 -12z"/>
<path d="M1173 1304 c-9 -4 -10 -24 -6 -71 7 -77 -4 -78 -40 -7 -21 41 -24 43
-42 31 -18 -14 -18 -16 -2 -50 9 -19 17 -40 17 -46 0 -14 19 -14 76 1 45 12
46 13 40 48 -3 19 -6 50 -6 68 0 31 -9 37 -37 26z"/>
<path d="M968 1195 c-15 -8 -31 -30 -38 -49 -8 -24 -16 -34 -28 -32 -20 4 -67
-12 -60 -20 3 -2 34 1 70 8 58 11 66 15 76 41 9 22 16 28 31 24 17 -4 18 -2 9
19 -13 28 -22 29 -60 9z"/>
<path d="M1056 1155 c-3 -8 -16 -15 -30 -15 -14 0 -28 -4 -31 -10 -6 -9 40 -4
76 9 14 5 14 8 4 18 -10 10 -14 9 -19 -2z"/>
<path d="M1570 1149 c-36 -10 -78 -20 -95 -23 -16 -3 -102 -23 -190 -44 -88
-22 -205 -49 -260 -61 -55 -12 -136 -31 -180 -42 -44 -11 -111 -27 -150 -34
-38 -8 -119 -26 -180 -40 -60 -15 -151 -35 -201 -45 -113 -24 -140 -34 -153
-59 -17 -31 -15 -42 54 -327 36 -148 68 -279 70 -291 8 -37 58 -43 161 -22 77
17 505 114 679 154 33 8 110 25 170 39 565 129 555 125 555 201 0 25 -6 64
-14 87 -8 24 -24 88 -35 143 -12 55 -28 129 -36 165 -8 36 -20 88 -25 115 -15
75 -18 81 -46 93 -32 15 -44 14 -124 -9z m123 -11 c9 -7 23 -42 31 -78 31
-145 106 -469 112 -484 11 -28 -6 -65 -36 -81 -36 -19 -159 -45 -165 -35 -2 3
-7 22 -10 41 -3 19 -17 79 -30 134 -13 55 -31 134 -40 175 -9 41 -18 82 -20
90 -11 40 -45 196 -45 207 0 7 12 13 28 14 15 0 45 6 67 14 52 17 87 18 108 3z
m-218 -45 c4 -10 15 -58 25 -108 22 -105 61 -277 96 -422 13 -56 24 -107 24
-112 0 -6 -17 -13 -37 -16 -38 -6 -78 -15 -243 -54 -297 -70 -416 -97 -676
-156 -161 -36 -303 -65 -317 -65 -35 0 -44 15 -67 116 -60 254 -92 385 -107
438 l-17 59 34 28 c19 16 44 29 56 29 12 0 49 6 81 14 111 27 279 65 398 91
107 23 180 40 390 90 33 8 103 24 155 36 52 11 113 27 135 34 54 18 62 18 70
-2z"/>
<path d="M1650 1071 c0 -6 7 -11 16 -11 9 0 14 -6 12 -12 -6 -16 -48 -23 -48
-9 0 6 -4 11 -9 11 -5 0 -8 -8 -7 -17 1 -12 -7 -19 -23 -21 -29 -5 -52 15 -28
24 9 3 14 10 11 16 -9 14 -34 -11 -34 -34 0 -10 7 -21 16 -25 15 -5 81 10 114
27 21 10 19 54 -2 58 -10 2 -18 -1 -18 -7z"/>
<path d="M1680 967 c0 -8 -22 -18 -50 -23 -43 -9 -52 -8 -60 5 -8 13 -9 11
-10 -9 0 -14 5 -32 10 -40 9 -13 10 -13 10 1 0 11 18 20 62 30 61 14 83 31 53
42 -8 4 -15 1 -15 -6z"/>
<path d="M1705 867 c35 -26 -11 -50 -53 -28 -9 4 -29 11 -44 15 -26 6 -28 4
-28 -23 0 -16 5 -33 12 -37 8 -5 9 0 5 15 -7 29 12 36 49 16 36 -19 44 -19 71
0 27 19 20 55 -10 55 -20 0 -20 -1 -2 -13z"/>
<path d="M1710 770 c0 -5 6 -9 13 -7 6 1 12 -5 12 -13 0 -22 -31 -24 -76 -6
-22 9 -44 16 -49 16 -13 0 -13 -57 0 -65 6 -4 10 5 10 19 0 25 22 36 34 17 3
-5 18 -12 32 -15 35 -9 74 16 67 44 -5 20 -43 29 -43 10z"/>
<path d="M1710 679 c-14 -4 -38 -11 -53 -14 -24 -5 -28 -10 -25 -33 6 -49 88
-37 88 13 0 18 5 25 19 25 23 0 36 -16 21 -25 -13 -8 -13 -25 -1 -25 5 0 13
10 17 22 4 15 1 25 -12 35 -20 14 -19 14 -54 2z m-15 -40 c0 -8 -12 -15 -27
-17 -31 -4 -37 12 -10 27 21 13 37 9 37 -10z"/>
<path d="M1746 571 c-4 -6 -12 -8 -20 -5 -22 8 -66 -14 -66 -35 0 -34 25 -45
61 -27 17 9 35 13 40 10 5 -3 18 0 29 6 31 16 23 54 -12 58 -14 2 -29 -1 -32
-7z m52 -18 c5 -16 -22 -27 -44 -19 -13 5 -14 9 -4 22 15 17 41 15 48 -3z
m-68 -18 c0 -9 -7 -18 -15 -21 -23 -9 -45 3 -39 21 8 20 54 20 54 0z"/>
<path d="M1309 903 c-48 -13 -56 -18 -52 -34 5 -16 11 -19 34 -14 25 6 29 4
29 -17 1 -13 13 -75 29 -138 26 -108 29 -115 52 -115 29 0 28 -2 6 100 -30
131 -47 186 -57 180 -6 -4 -10 -2 -10 3 0 5 14 9 31 10 37 1 41 4 33 26 -7 19
-19 19 -95 -1z"/>
<path d="M1140 863 c-30 -8 -56 -16 -58 -17 -1 -2 13 -68 33 -147 19 -78 35
-152 35 -162 0 -14 5 -17 18 -12 9 3 36 10 60 15 51 9 54 12 46 34 -5 12 -14
15 -44 10 l-38 -6 -10 48 c-12 54 -9 61 27 66 27 3 35 16 23 36 -7 10 -15 10
-37 2 -15 -6 -25 -13 -21 -17 3 -3 1 -12 -5 -20 -9 -10 -15 -10 -25 -2 -20 16
-18 40 3 32 13 -5 15 -2 10 11 -4 10 -10 35 -13 57 -6 38 -6 39 25 39 19 0 34
6 38 16 10 27 -10 32 -67 17z"/>
<path d="M970 820 c-11 -7 -15 -27 -15 -74 0 -50 -4 -67 -17 -75 -14 -9 -16
-8 -11 6 4 11 3 14 -5 9 -7 -4 -12 -14 -12 -23 0 -9 -3 -13 -7 -10 -3 4 -1 18
7 31 10 19 10 34 0 75 -12 52 -14 54 -41 43 -13 -6 -10 -28 24 -169 33 -138
42 -163 57 -163 29 0 31 12 10 86 -14 52 -16 71 -7 76 9 6 8 10 -3 17 -8 6
-11 13 -7 18 11 10 28 -18 22 -35 -7 -20 72 -132 94 -132 34 0 30 12 -25 87
l-55 74 11 62 c6 34 14 72 17 85 6 24 -10 29 -37 12z"/>
<path d="M741 769 c-13 -5 -30 -17 -37 -27 -28 -37 -8 -196 33 -258 32 -50
133 -52 133 -3 0 18 -4 20 -29 14 -44 -9 -66 8 -84 67 -34 108 -25 163 28 173
11 2 21 4 23 4 1 1 -2 10 -8 21 -12 22 -23 24 -59 9z"/>
<path d="M541 721 c-12 -7 -7 -35 24 -162 21 -85 39 -157 41 -161 2 -3 13 -4
24 -1 13 4 20 14 20 30 0 16 -4 22 -12 17 -7 -4 -8 -3 -4 5 10 16 -55 281 -69
281 -5 0 -16 -4 -24 -9z"/>
<path d="M370 686 c-31 -7 -55 -17 -54 -24 2 -30 5 -33 30 -30 25 3 27 -1 54
-107 15 -60 31 -122 34 -137 6 -27 38 -39 50 -20 2 4 -11 68 -30 142 -35 135
-35 149 3 150 6 0 9 9 6 20 -6 22 -13 23 -93 6z"/>
</g>
</svg>
