<?xml version="1.0" encoding="UTF-8"?>
<svg version="1.1" xmlns="http://www.w3.org/2000/svg" width="2500" height="1668">
<path d="M0 0 C825 0 1650 0 2500 0 C2500 550.44 2500 1100.88 2500 1668 C1675 1668 850 1668 0 1668 C0 1117.56 0 567.12 0 0 Z " fill="#FEFEFE" transform="translate(0,0)"/>
<path d="M0 0 C1.04027344 -0.04898438 2.08054687 -0.09796875 3.15234375 -0.1484375 C17.49926702 1.77212965 25.56122143 10.88047469 35.27781677 20.7081604 C36.891805 22.31479344 38.50731731 23.91989662 40.1242128 25.5236038 C44.54988562 29.92204309 48.9535197 34.34198043 53.35375822 38.76584458 C57.61930396 43.04746134 61.90125845 47.31256593 66.18272575 51.57824608 C75.47594748 60.83852629 84.74919181 70.11860783 94.01409597 79.40721023 C102.12180584 87.53553577 110.23622043 95.65709416 118.35731697 103.77204514 C119.16600409 104.5801479 119.16600409 104.5801479 119.99102832 105.40457597 C122.17963051 107.5915805 124.36826267 109.77855504 126.55694068 111.9654837 C147.07888342 132.47123348 167.58078259 152.9969175 188.0734561 173.53191326 C206.27263216 191.76844254 224.48835862 209.98827961 242.71850586 228.19384766 C263.20983302 248.65768411 283.69155651 269.13104961 304.15724903 289.62052572 C306.33961666 291.80538438 308.5220028 293.99022454 310.70439339 296.17506027 C311.24172695 296.7130148 311.77906052 297.25096934 312.33267693 297.80522552 C320.44060417 305.92221671 328.55569364 314.03199996 336.67422295 322.13838577 C345.90660404 331.35707374 355.12804966 340.58654872 364.33537006 349.83026941 C369.03313918 354.54607256 373.73586772 359.25671989 378.45156097 363.95462036 C382.76906227 368.25611559 387.0724384 372.57123797 391.36501087 376.89760654 C392.91939993 378.45938604 394.47885079 380.01614756 396.04384773 381.56729718 C412.5801945 397.96913091 412.5801945 397.96913091 414.69140625 409.94140625 C414.29879595 427.65505929 404.1416345 436.47387394 392.16210938 448.37304688 C391.32359436 449.21010162 390.48507935 450.04715637 389.62115479 450.90957642 C387.82010722 452.70684937 386.01790655 454.50296743 384.21464539 456.29801941 C381.36322264 459.13658332 378.51494744 461.97827033 375.66760254 464.82092285 C369.63555678 470.84194771 363.59923438 476.85867657 357.5625 482.875 C351.01533585 489.40010087 344.4689482 495.92597092 337.92738962 502.45669222 C335.55979339 504.82012343 333.19112216 507.18245692 330.81999207 509.54234314 C328.18703866 512.16340227 325.55707438 514.7874262 322.92773438 517.41210938 C322.14130554 518.19337189 321.35487671 518.9746344 320.5446167 519.77957153 C319.83263123 520.49148651 319.12064575 521.20340149 318.38708496 521.93688965 C317.76550255 522.55625145 317.14392014 523.17561325 316.50350189 523.81374359 C314.96809467 525.3321393 314.96809467 525.3321393 314.0625 527.375 C315.07747559 527.50479248 316.09245117 527.63458496 317.13818359 527.76831055 C320.80582726 528.33531904 324.2690963 529.12310366 327.8515625 530.08203125 C329.12386719 530.42169922 330.39617187 530.76136719 331.70703125 531.11132812 C332.69050537 531.37731812 332.69050537 531.37731812 333.69384766 531.64868164 C335.66050442 532.18020399 337.62888797 532.70487555 339.59765625 533.22851562 C346.76087278 535.14488509 353.86134741 537.215116 360.93994141 539.42602539 C366.06912112 540.98483083 371.25263237 542.32810681 376.4375 543.6875 C386.04655914 546.23524086 395.56118326 549.00200791 405.05322266 551.95361328 C410.60553659 553.66733853 416.16145222 555.21142923 421.8125 556.5625 C442.7283255 561.68386468 442.7283255 561.68386468 449.40625 571.3125 C450.36646729 572.95858678 451.22370089 574.66384981 452.0625 576.375 C452.3925 577.035 452.7225 577.695 453.0625 578.375 C454.22562064 586.08987615 452.5765796 592.92686991 450.46875 600.29296875 C450.06703835 601.72986305 450.06703835 601.72986305 449.6572113 603.19578552 C448.79933246 606.25754932 447.93120901 609.3162935 447.0625 612.375 C446.5092519 614.34211788 445.95659403 616.30940186 445.40454102 618.27685547 C443.96282175 623.40623403 442.51108347 628.53271889 441.0559082 633.65829468 C440.09409242 637.04637464 439.13379645 640.43488248 438.17382812 643.82348633 C435.12110884 654.59761727 432.06405295 665.37051459 429.00474548 676.14277649 C427.67505682 680.82602512 426.34669583 685.50964981 425.01852417 690.19332886 C424.09710472 693.44054782 423.17371817 696.68720276 422.25024414 699.93383789 C418.86145428 711.87167231 415.56317787 723.83005866 412.37084961 735.82206726 C411.02374961 740.87113491 409.65157224 745.89524372 408.0625 750.875 C406.05753175 757.17265668 404.38591277 763.55205112 402.6875 769.9375 C400.59777716 777.7895224 398.44505953 785.60665465 396.0625 793.375 C393.7438342 800.93637096 391.65053343 808.54258214 389.625 816.1875 C387.15273953 825.50880225 384.47799347 834.74117492 381.62402344 843.95214844 C378.75651469 853.25296318 376.22289681 862.63500935 373.69726562 872.03320312 C372.57013142 876.1914613 371.37234777 880.3289375 370.1796875 884.46875 C368.67710982 889.70099049 367.21640724 894.94503431 365.75 900.1875 C365.44465332 901.27844971 365.13930664 902.36939941 364.82470703 903.4934082 C363.39522628 908.6026997 361.96797011 913.71258837 360.546875 918.82421875 C357.64582742 929.24136296 354.70261409 939.64536288 351.71875 950.0390625 C351.41610733 951.09430115 351.11346466 952.14953979 350.801651 953.23675537 C349.27533399 958.55854958 347.74643992 963.87957447 346.21264648 969.19921875 C343.03492404 980.25465132 339.96848111 991.32715099 337.13389587 1002.47610474 C335.5135631 1008.81250525 333.68899191 1015.0665532 331.75 1021.3125 C331.26998535 1022.86892212 331.26998535 1022.86892212 330.78027344 1024.45678711 C330.51762695 1025.3050708 330.25498047 1026.15335449 329.984375 1027.02734375 C327.71559524 1034.44606332 325.59910228 1041.9069389 323.5 1049.375 C323.30660034 1050.06264435 323.11320068 1050.7502887 322.91394043 1051.45877075 C320.50790191 1060.03069237 318.19933692 1068.62247646 316 1077.25 C313.83955162 1085.65653462 311.49113168 1093.99784518 309 1102.3125 C308.68345459 1103.39708496 308.36690918 1104.48166992 308.04077148 1105.59912109 C304.96243022 1115.68533195 301.23386174 1122.82102795 292.0625 1128.375 C281.25929977 1133.65656456 269.11569223 1129.06900258 258.375 1125.8125 C256.8055191 1125.34898271 255.23560742 1124.88692171 253.6652832 1124.42626953 C249.81410461 1123.29350419 245.96765647 1122.145625 242.12268066 1120.99200439 C237.33743328 1119.5588686 232.54387453 1118.15394712 227.75 1116.75 C226.81905518 1116.47599365 225.88811035 1116.2019873 224.92895508 1115.91967773 C217.008113 1113.6063556 209.04065213 1111.48064378 201.0625 1109.375 C187.99438268 1105.92487138 175.01920265 1102.21960863 162.0625 1098.375 C150.10798811 1094.83667087 138.1454434 1091.36457003 126.09765625 1088.15625 C113.04348614 1084.65927987 100.02257546 1081.04916015 87.01147461 1077.39550781 C83.36716531 1076.37280134 79.72169906 1075.354293 76.07617188 1074.3359375 C63.84023344 1070.90815631 51.63716948 1067.40445743 39.50227356 1063.63256836 C34.38464782 1062.04758926 29.27300738 1060.62283521 24.0625 1059.375 C17.62204895 1057.82929175 11.32458369 1055.96463772 5 1054 C-3.76671498 1051.28097008 -12.57116027 1048.84589559 -21.46240234 1046.5703125 C-30.36855336 1044.28521148 -39.19981794 1041.77353368 -48.03076172 1039.21533203 C-53.57968816 1037.61114886 -59.13374826 1036.02488169 -64.6875 1034.4375 C-66.46833984 1033.9283606 -66.46833984 1033.9283606 -68.28515625 1033.40893555 C-82.29033653 1029.41003794 -96.31762974 1025.49041032 -110.3515625 1021.59375 C-112.48448089 1021.00038051 -114.61729418 1020.40663307 -116.75 1019.8125 C-117.78858154 1019.5232666 -118.82716309 1019.2340332 -119.8972168 1018.93603516 C-127.16655442 1016.9000924 -134.40527867 1014.77533958 -141.60473633 1012.50366211 C-143.06176485 1012.05405073 -144.52781492 1011.63274424 -146.00105155 1011.2394805 C-148.9375 1010.375 -148.9375 1010.375 -152.64646566 1008.93245935 C-160.15996745 1006.21204132 -160.15996745 1006.21204132 -167.86793569 1007.09128273 C-172.78928368 1010.05678833 -176.61149952 1014.33739003 -180.53872681 1018.47106934 C-181.91337617 1019.83870514 -183.29264334 1021.2017124 -184.67607725 1022.56046152 C-188.45785907 1026.30115316 -192.17107852 1030.10401576 -195.87627482 1033.92037392 C-199.88574704 1038.02678103 -203.9558961 1042.07224938 -208.01904297 1046.12542725 C-215.04928009 1053.15488482 -222.04020412 1060.22156805 -229.00600052 1067.31486511 C-239.08330312 1077.57623616 -249.2196508 1087.77758671 -259.37160055 1097.96504909 C-275.84888185 1114.50292212 -292.27992383 1131.0859421 -308.68115234 1147.69921875 C-324.59919322 1163.82275232 -340.53484685 1179.92849572 -356.49755859 1196.0078125 C-356.98936777 1196.50323291 -357.48117694 1196.99865333 -357.98788943 1197.50908648 C-368.2612576 1207.85775511 -378.53782749 1218.20324288 -388.81495071 1228.54818222 C-393.0896706 1232.8511298 -397.36416802 1237.15429833 -401.63859728 1241.4575346 C-403.04433289 1242.87270668 -404.45012958 1244.28781808 -405.85592644 1245.70292932 C-417.80064392 1257.72748979 -429.73068146 1269.76636849 -441.6446507 1281.82139492 C-447.65382893 1287.90163164 -453.66780719 1293.97711094 -459.6830854 1300.05131239 C-464.4408698 1304.85658013 -469.19210196 1309.66819976 -473.9383193 1314.48489127 C-476.81843715 1317.40461475 -479.70482959 1320.31807083 -482.59308188 1323.22974569 C-483.91506613 1324.56505342 -485.23441351 1325.90297788 -486.55085512 1327.24375027 C-488.33981217 1329.06513142 -490.13797521 1330.87691606 -491.93868446 1332.6866684 C-492.44807865 1333.20994642 -492.95747283 1333.73322444 -493.4823032 1334.27235937 C-499.99293795 1340.76480715 -507.44084798 1344.31177005 -516.6875 1344.75 C-530.55431418 1344.39173884 -538.68899184 1335.7791147 -547.90777969 1326.5417347 C-548.56414756 1325.88801866 -549.22051542 1325.23430262 -549.89677322 1324.56077701 C-552.08377248 1322.38140456 -554.26725552 1320.19854431 -556.45074463 1318.01565552 C-558.03851811 1316.43190095 -559.62650134 1314.84835665 -561.21467566 1313.26500404 C-565.56934673 1308.92225504 -569.9208948 1304.5763886 -574.27189684 1300.22996402 C-578.4855723 1296.02164698 -582.70155332 1291.8156412 -586.9173854 1287.60948491 C-598.73820747 1275.81543826 -610.55319171 1264.01554972 -622.36736643 1252.214845 C-625.56752852 1249.01835623 -628.76785509 1245.82203219 -631.9682188 1242.6257453 C-651.84463367 1222.77458375 -671.71944247 1202.92181571 -691.58945084 1183.06424141 C-696.18753992 1178.46907346 -700.78565222 1173.87392875 -705.38378906 1169.27880859 C-705.95502253 1168.70794604 -706.526256 1168.13708348 -707.11479957 1167.54892205 C-725.65003203 1149.02585451 -744.19464097 1130.51221084 -762.74461352 1112.00390566 C-781.82443704 1092.96686156 -800.8961749 1073.92175682 -819.95723866 1054.8659283 C-822.64862257 1052.17528482 -825.34009158 1049.48472649 -828.03160858 1046.79421616 C-828.56129667 1046.26471868 -829.09098476 1045.73522121 -829.636724 1045.18967835 C-838.16104361 1036.66887221 -846.69372488 1028.15648719 -855.22948148 1019.64713989 C-863.80518012 1011.09757526 -872.37164855 1002.53884919 -880.9287999 993.97072019 C-885.56482071 989.32924697 -890.2051011 984.69218523 -894.85618591 980.06579971 C-899.11297611 975.83142741 -903.35809033 971.58570513 -907.59416744 967.33061431 C-909.12932146 965.79265 -910.66872425 964.25891267 -912.21274474 962.72984995 C-914.31044359 960.65123745 -916.39213711 958.55778454 -918.47058487 956.45994759 C-919.07385868 955.86952299 -919.6771325 955.2790984 -920.29868734 954.67078215 C-926.6917392 948.14590912 -930.03087537 940.26143699 -930.1875 931.125 C-930.05400517 918.59317311 -922.89581809 911.03075349 -914.40527344 902.61572266 C-913.11692596 901.3269371 -913.11692596 901.3269371 -911.80255127 900.01211548 C-909.45933666 897.6700512 -907.11178916 895.33249849 -904.76216412 892.99687624 C-902.30287424 890.55013277 -899.84928897 888.09768202 -897.39508057 885.64584351 C-892.75264234 881.00960858 -888.10513186 876.37849332 -883.45575547 871.74921739 C-878.16038635 866.47624312 -872.8707302 861.19755355 -867.58153486 855.91838765 C-856.70651276 845.0642415 -845.82437549 834.21725777 -834.9375 823.375 C-838.46932812 822.24350806 -842.00203957 821.11479857 -845.53491211 819.98657227 C-846.53023705 819.66766273 -847.52556198 819.3487532 -848.55104828 819.02017975 C-855.15560455 816.91293969 -861.76656833 814.96748122 -868.5 813.3125 C-877.54806059 811.0161593 -886.52447308 808.53178095 -895.4921875 805.94140625 C-901.46401875 804.21686752 -907.45039884 802.54560616 -913.4375 800.875 C-916.5837951 799.9944636 -919.72990983 799.11328552 -922.87597656 798.23193359 C-924.888062 797.66874222 -926.90042403 797.10653792 -928.91308594 796.54541016 C-962.82716523 787.07901822 -962.82716523 787.07901822 -970.9375 775.375 C-977.56851145 762.54078428 -974.84505806 752.05461873 -970.69921875 739.03125 C-968.84203997 733.1718663 -967.25368977 727.25520013 -965.6875 721.3125 C-962.88273471 710.75866655 -959.94360314 700.24783398 -956.9375 689.75 C-956.72212585 688.99746948 -956.50675171 688.24493896 -956.28485107 687.46960449 C-953.93743326 679.27401331 -951.56449508 671.08664174 -949.15209961 662.90991211 C-946.05140145 652.39422654 -943.16008082 641.8315595 -940.35830688 631.23294067 C-937.86511866 621.80252031 -935.27462436 612.40962393 -932.56640625 603.0390625 C-930.48423399 595.82879741 -928.46495398 588.60078875 -926.4375 581.375 C-923.73022111 571.7315642 -921.00807861 562.09277967 -918.24609375 552.46484375 C-915.74796197 543.74185902 -913.29907798 535.00505792 -910.84625244 526.26925659 C-908.28780477 517.15852167 -905.71026461 508.05362582 -903.10107422 498.95727539 C-901.22786609 492.41649607 -899.3918374 485.86567019 -897.5625 479.3125 C-892.88793185 462.57905145 -888.14746245 445.86385509 -883.24194336 429.1965332 C-880.17416743 418.76989629 -877.28499995 408.30769817 -874.49194336 397.80419922 C-872.75062658 391.29098127 -870.91184463 384.8211958 -868.9375 378.375 C-866.35087533 369.91964943 -864.03159625 361.4063559 -861.75610352 352.86254883 C-859.36558665 343.90901205 -856.88942818 334.98184106 -854.375 326.0625 C-854.0839035 325.02959839 -854.0839035 325.02959839 -853.78692627 323.97583008 C-851.31877556 315.22340576 -848.8261463 306.47816948 -846.31396484 297.73828125 C-844.04655904 289.8185018 -841.85493792 281.87800545 -839.6579895 273.93847656 C-837.75913065 267.08176514 -835.8495902 260.22803146 -833.9375 253.375 C-833.58445801 252.1080127 -833.23141602 250.84102539 -832.86767578 249.53564453 C-831.94201989 246.22933881 -831.00486982 242.9265747 -830.0625 239.625 C-829.67010132 238.2177063 -829.67010132 238.2177063 -829.26977539 236.78198242 C-826.286943 226.44194281 -822.17566285 218.00049265 -812.81640625 212.01953125 C-803.16377717 206.96513001 -792.93648498 207.39285421 -782.70825195 210.50805664 C-781.75265381 210.81477295 -780.79705566 211.12148926 -779.8125 211.4375 C-777.69967857 212.08483604 -775.58638124 212.73062046 -773.47265625 213.375 C-772.39516113 213.70757812 -771.31766602 214.04015625 -770.20751953 214.3828125 C-764.91289761 215.98930373 -759.5823231 217.46199518 -754.25 218.9375 C-745.83557398 221.28032237 -737.43137127 223.65536655 -729.03559875 226.06410217 C-722.58286529 227.91207297 -716.12127141 229.72680684 -709.65625 231.53125 C-694.4297267 235.7881952 -679.22040984 240.10554833 -664.01062012 244.42181396 C-646.32877777 249.43942203 -628.6404148 254.43222889 -610.9375 259.375 C-609.6204334 259.74296798 -608.30337479 260.11096457 -606.98632812 260.47900391 C-604.96421008 261.04400748 -602.94207695 261.60895708 -600.91992188 262.17382812 C-591.55742986 264.79050745 -582.20347822 267.43463378 -572.85888672 270.11450195 C-566.35083196 271.97822216 -559.83324447 273.80623194 -553.3125 275.625 C-543.00881085 278.50014558 -532.72154816 281.43060676 -522.4375 284.375 C-503.8670395 289.68927212 -485.28834831 294.95724975 -466.625 299.9375 C-458.24803071 302.17453157 -449.92228609 304.52628045 -441.63078308 307.06108093 C-435.25826858 309.00153393 -428.85793912 310.82826019 -422.44140625 312.6171875 C-421.36161499 312.91905975 -420.28182373 313.22093201 -419.16931152 313.5319519 C-412.49072376 315.39541168 -405.80614538 317.23590439 -399.11680603 319.06036377 C-394.80411215 320.23764364 -390.49373294 321.4232689 -386.18359375 322.60986328 C-383.99197197 323.21084501 -381.7992297 323.80775333 -379.60546875 324.40087891 C-376.35887504 325.2797673 -373.11670816 326.17359552 -369.875 327.0703125 C-368.90618896 327.3287796 -367.93737793 327.5872467 -366.93920898 327.85354614 C-361.38478722 329.40765291 -356.76781289 331.35869059 -351.91235352 334.49508667 C-350.02655983 335.51922517 -350.02655983 335.51922517 -348.16456914 335.25811893 C-344.88509071 333.95767907 -342.75935165 331.597397 -340.32954025 329.12501049 C-339.77184671 328.56958009 -339.21415316 328.01414969 -338.63955981 327.44188806 C-336.7592265 325.56550765 -334.88986752 323.67855628 -333.02020264 321.79154968 C-331.66603962 320.43583153 -330.31121115 319.08077779 -328.95577264 317.72633487 C-325.22238484 313.99188948 -321.49843098 310.24815682 -317.77586627 306.50292695 C-313.76349052 302.46942526 -309.74243904 298.44459002 -305.72233582 294.41879272 C-298.7534652 287.43783398 -291.78989402 280.45162492 -284.82964325 273.46207237 C-274.75951042 263.34991198 -264.67924654 253.24789898 -254.5960665 243.14875016 C-249.89961381 238.44480789 -245.20357189 233.7404556 -240.50766373 229.03596973 C-239.80246211 228.32948292 -239.80246211 228.32948292 -239.083014 227.60872365 C-227.88911283 216.39422105 -216.69970388 205.17523971 -205.51123047 193.95532227 C-205.02160484 193.46432494 -204.53197921 192.97332762 -204.02751644 192.46745159 C-193.10214242 181.51143616 -182.17767433 170.55451789 -171.25420426 159.59660416 C-166.79793377 155.12628696 -162.34160468 150.65602819 -157.88525391 146.18579102 C-157.39650012 145.6955104 -156.90774634 145.20522978 -156.40418183 144.70009218 C-145.24402543 133.50513521 -134.08221565 122.31183514 -122.91450882 111.12440968 C-122.21027496 110.41893145 -122.21027496 110.41893145 -121.49181415 109.69920115 C-116.3414611 104.539848 -111.19060401 99.38099835 -106.03936887 94.22252589 C-95.98042836 84.14876005 -85.92836753 74.06822232 -75.88501772 63.97891233 C-69.00250493 57.0658584 -62.11288198 50.15994539 -55.21759692 43.259631 C-51.2378411 39.27647824 -47.2614825 35.29007776 -43.29382133 31.29487419 C-39.66171804 27.63767067 -36.02051251 23.98979377 -32.37184826 20.34911451 C-31.05337497 19.03024949 -29.7382981 17.70797848 -28.42698774 16.38199135 C-26.64339919 14.57942164 -24.84784202 12.7896653 -23.04882431 11.00251293 C-22.29031908 10.22695931 -22.29031908 10.22695931 -21.51649052 9.43573794 C-15.50978813 3.53010671 -8.44254225 0.266068 0 0 Z " fill="#000000" transform="translate(1507.9375,161.625)"/>
<path d="M0 0 C3.27907168 1.5587232 5.46450075 3.22076374 8.03417969 5.80712891 C8.81468689 6.58778717 9.59519409 7.36844543 10.39935303 8.17276001 C11.23178528 9.01551483 12.06421753 9.85826965 12.921875 10.7265625 C14.21185394 12.02078629 14.21185394 12.02078629 15.52789307 13.34115601 C18.2733231 16.09778029 21.0117169 18.86127799 23.75 21.625 C25.61021783 23.49524857 27.47088946 25.36504589 29.33203125 27.234375 C33.89329945 31.8176936 38.44881011 36.40667478 43 41 C41.59200046 43.94188797 40.28613563 45.91802316 37.8828125 48.13671875 C36.97208984 49.00393555 36.97208984 49.00393555 36.04296875 49.88867188 C34.77820825 51.07486782 33.50747495 52.25473177 32.23046875 53.42773438 C26.9706351 58.47072499 23.77845897 63.70130379 22.46875 70.93359375 C22.56315442 78.49774775 23.77211308 85.13090755 28.73046875 91.07421875 C34.22807004 96.30846189 39.93639223 98.47323603 47.375 99.4375 C58.9710387 98.03797809 64.83633402 92.84687585 72.51733398 84.40039062 C73.17032471 83.69462891 73.82331543 82.98886719 74.49609375 82.26171875 C75.07544678 81.61162842 75.6547998 80.96153809 76.25170898 80.29174805 C78 79 78 79 79.89155579 79.22283936 C82.38628087 80.14238095 83.6176717 81.25556792 85.48339844 83.14282227 C86.14378113 83.80343155 86.80416382 84.46404083 87.48455811 85.14466858 C88.18574768 85.86134201 88.88693726 86.57801544 89.609375 87.31640625 C90.33618469 88.04746078 91.06299438 88.77851532 91.81182861 89.53172302 C94.13168401 91.86837157 96.440892 94.21523484 98.75 96.5625 C100.32092443 98.14847036 101.89253094 99.73376543 103.46484375 101.31835938 C107.31784484 105.20443822 111.16215519 109.09895543 115 113 C113.64812455 115.81380482 112.44479898 117.76907743 110.13671875 119.8828125 C109.58137451 120.40504395 109.02603027 120.92727539 108.45385742 121.46533203 C107.87095947 122.01302246 107.28806152 122.56071289 106.6875 123.125 C99.90458997 129.74731835 94.93392216 135.65429374 94.4375 145.5 C94.8651282 153.26309656 97.04008303 159.59100895 102.8125 164.9375 C108.65389693 169.49873812 113.96839498 171.62803968 121.39453125 171.3359375 C131.12040404 170.08192692 137.24041676 164.7257289 144 158 C144.72058594 157.29359375 145.44117188 156.5871875 146.18359375 155.859375 C147.80506589 154.25421545 149.41057211 152.63679495 151 151 C153.99943905 152.34572887 156.08076179 153.83537101 158.39160156 156.16455078 C159.0319635 156.80506378 159.67232544 157.44557678 160.33209229 158.10549927 C161.35106598 159.13995682 161.35106598 159.13995682 162.390625 160.1953125 C163.09523865 160.90275604 163.79985229 161.61019958 164.52581787 162.33908081 C166.7719539 164.59639862 169.01103009 166.86057633 171.25 169.125 C172.77297717 170.65800953 174.29640939 172.19056715 175.8203125 173.72265625 C179.55216815 177.47654573 183.27825351 181.23608914 187 185 C185.64812455 187.81380482 184.44479898 189.76907743 182.13671875 191.8828125 C181.58137451 192.40504395 181.02603027 192.92727539 180.45385742 193.46533203 C179.5795105 194.28686768 179.5795105 194.28686768 178.6875 195.125 C171.90458997 201.74731835 166.93392216 207.65429374 166.4375 217.5 C166.8651282 225.26309656 169.04008303 231.59100895 174.8125 236.9375 C180.84830548 241.6418778 186.38152859 243.7523817 194.0546875 243.44921875 C206.67871954 241.52380272 214.76611625 231.89162002 223 223 C225.99943905 224.34572887 228.08076179 225.83537101 230.39160156 228.16455078 C231.0319635 228.80506378 231.67232544 229.44557678 232.33209229 230.10549927 C233.35106598 231.13995682 233.35106598 231.13995682 234.390625 232.1953125 C235.09523865 232.90275604 235.79985229 233.61019958 236.52581787 234.33908081 C238.7719539 236.59639862 241.01103009 238.86057633 243.25 241.125 C244.77297717 242.65800953 246.29640939 244.19056715 247.8203125 245.72265625 C251.55216815 249.47654573 255.27825351 253.23608914 259 257 C257.46249959 260.37640113 255.59355944 262.48197603 252.86035156 265.00805664 C245.18946235 272.11490988 238.94074612 279.73029293 238.3125 290.625 C238.78566162 298.07729544 241.87479751 304.39668237 247.375 309.4375 C254.49635878 314.82045428 261.22616077 316.0967299 270 315 C280.46854192 312.46568526 287.91816158 302.54308041 295 295 C298.31613882 296.44580966 300.49185728 298.24829792 303.03417969 300.80712891 C303.81468689 301.58778717 304.59519409 302.36844543 305.39935303 303.17276001 C306.6480014 304.43689224 306.6480014 304.43689224 307.921875 305.7265625 C308.78186096 306.58937836 309.64184692 307.45219421 310.52789307 308.34115601 C313.2733231 311.09778029 316.0117169 313.86127799 318.75 316.625 C320.61021783 318.49524857 322.47088946 320.36504589 324.33203125 322.234375 C328.89329945 326.8176936 333.44881011 331.40667478 338 336 C336.65760953 338.98626139 335.17689501 341.07232948 332.86469078 343.38140488 C332.2162805 344.03379725 331.56787022 344.68618963 330.89981115 345.35835147 C330.1858114 346.06652554 329.47181165 346.77469961 328.73617554 347.5043335 C327.9790095 348.26320838 327.22184346 349.02208327 326.441733 349.80395436 C323.89606429 352.35292488 321.34329899 354.89466793 318.79052734 357.43652344 C316.96716595 359.25932087 315.14424448 361.08255845 313.32173157 362.90620422 C309.39351587 366.83546876 305.46165413 370.76105405 301.52729416 374.68416595 C295.83887346 380.35633442 290.15598166 386.03401572 284.47442527 391.71305886 C275.25638898 400.92671761 266.03389496 410.13590094 256.80859375 419.34228516 C247.8469416 428.28558002 238.88739187 437.2309725 229.93066406 446.17919922 C229.37859533 446.73074251 228.82652659 447.28228579 228.2577285 447.85054252 C225.4881822 450.61747874 222.71867721 453.38445632 219.94919276 456.15145445 C196.97252944 479.10738345 173.98863056 502.0560552 151 525 C149.75283203 524.36771484 149.75283203 524.36771484 148.48046875 523.72265625 C147.39378906 523.17480469 146.30710937 522.62695312 145.1875 522.0625 C144.10855469 521.51722656 143.02960937 520.97195313 141.91796875 520.41015625 C134.85928237 516.9989303 127.25107659 516.65809389 119.7578125 519.0234375 C111.39305419 522.87590889 104.515517 528.47160993 101 537.1875 C98.3718875 546.99568455 99.19026729 556.17045419 104 565 C104.66 566.65 105.32 568.3 106 570 C-99.26 775.26 -304.52 980.52 -516 1192 C-519.5751689 1190.21241555 -521.30075531 1188.94404498 -524.03417969 1186.19287109 C-524.81468689 1185.41221283 -525.59519409 1184.63155457 -526.39935303 1183.82723999 C-527.23178528 1182.98448517 -528.06421753 1182.14173035 -528.921875 1181.2734375 C-530.21185394 1179.97921371 -530.21185394 1179.97921371 -531.52789307 1178.65884399 C-534.2733231 1175.90221971 -537.0117169 1173.13872201 -539.75 1170.375 C-541.61021783 1168.50475143 -543.47088946 1166.63495411 -545.33203125 1164.765625 C-549.89329945 1160.1823064 -554.44881011 1155.59332522 -559 1151 C-557.21349958 1147.11412964 -554.70163812 1144.58817176 -551.625 1141.6875 C-544.61310535 1134.88090347 -540.93146602 1129.16272455 -540.6875 1119.25 C-540.75865864 1111.94734481 -542.71365859 1107.63808624 -547.4375 1102.1875 C-554.15877708 1096.44982444 -560.26042374 1094.49619725 -569.01171875 1094.69921875 C-579.92839328 1095.79802128 -587.76222236 1105.52096311 -595 1113 C-597.99943905 1111.65427113 -600.08076179 1110.16462899 -602.39160156 1107.83544922 C-603.0319635 1107.19493622 -603.67232544 1106.55442322 -604.33209229 1105.89450073 C-605.01140808 1105.20486237 -605.69072388 1104.515224 -606.390625 1103.8046875 C-607.09523865 1103.09724396 -607.79985229 1102.38980042 -608.52581787 1101.66091919 C-610.7719539 1099.40360138 -613.01103009 1097.13942367 -615.25 1094.875 C-616.77297717 1093.34199047 -618.29640939 1091.80943285 -619.8203125 1090.27734375 C-623.55216815 1086.52345427 -627.27825351 1082.76391086 -631 1079 C-629.1872014 1075.05222048 -626.80242036 1072.73149364 -623.625 1069.75 C-616.91390892 1063.27990896 -612.91938138 1056.84404528 -612.6875 1047.3125 C-612.75785769 1040.0304792 -614.68919871 1035.74797991 -619.3125 1030.25 C-626.0772418 1024.58649524 -632.31056297 1022.50963419 -641.078125 1022.68359375 C-652.42520477 1023.91235506 -659.65830948 1033.14047864 -667 1041 C-669.99943905 1039.65427113 -672.08076179 1038.16462899 -674.39160156 1035.83544922 C-675.0319635 1035.19493622 -675.67232544 1034.55442322 -676.33209229 1033.89450073 C-677.01140808 1033.20486237 -677.69072388 1032.515224 -678.390625 1031.8046875 C-679.09523865 1031.09724396 -679.79985229 1030.38980042 -680.52581787 1029.66091919 C-682.7719539 1027.40360138 -685.01103009 1025.13942367 -687.25 1022.875 C-688.77297717 1021.34199047 -690.29640939 1019.80943285 -691.8203125 1018.27734375 C-695.55216815 1014.52345427 -699.27825351 1010.76391086 -703 1007 C-701.29295806 1003.31587559 -699.26637006 1001.2421546 -696.25 998.5 C-689.61530065 991.9518402 -684.76797637 984.80737671 -684.4375 975.25 C-684.87338592 968.21500398 -686.86843336 961.99652541 -692 957 C-699.98711344 951.88302896 -706.47414217 950.05209523 -716 951 C-725.74353115 953.5178238 -732.38415701 961.91752232 -739 969 C-741.85779017 967.70280076 -743.91008536 966.3363174 -746.11621094 964.11083984 C-746.69651062 963.5303891 -747.2768103 962.94993835 -747.87469482 962.35189819 C-748.48838928 961.72788116 -749.10208374 961.10386414 -749.734375 960.4609375 C-750.37240051 959.82008209 -751.01042603 959.17922668 -751.66778564 958.51895142 C-753.69994069 956.47562179 -755.72502218 954.42544018 -757.75 952.375 C-759.1284453 950.9865214 -760.50734636 949.5984951 -761.88671875 948.2109375 C-765.26311894 944.81251303 -768.63319288 941.40792746 -772 938 C-771.05104789 936.88000438 -770.10024961 935.76157282 -769.14868164 934.64379883 C-768.61940567 934.02080399 -768.0901297 933.39780914 -767.54481506 932.75593567 C-765.63570969 930.58592432 -763.56221029 928.64497012 -761.4375 926.6875 C-754.43499015 919.62584733 -751.54337804 913.40840027 -751.375 903.5 C-751.48515052 894.81330192 -753.76075993 888.72512608 -759.5 882.125 C-760.325 881.42375 -761.15 880.7225 -762 880 C-762.763125 879.29875 -763.52625 878.5975 -764.3125 877.875 C-771.77073221 872.67158218 -779.10616018 872.07735799 -788 873 C-796.48224277 874.83598328 -801.98879934 880.01890552 -808 886 C-809.08087891 887.05960938 -809.08087891 887.05960938 -810.18359375 888.140625 C-811.80506589 889.74578455 -813.41057211 891.36320505 -815 893 C-818.13738154 891.60919475 -820.25475281 889.98977796 -822.66699219 887.56005859 C-823.36741638 886.85948334 -824.06784058 886.15890808 -824.78948975 885.43710327 C-825.53442688 884.68184357 -826.27936401 883.92658386 -827.046875 883.1484375 C-827.81807678 882.37440582 -828.58927856 881.60037415 -829.3838501 880.80288696 C-831.84396856 878.33158077 -834.29703848 875.85340817 -836.75 873.375 C-838.41750894 871.69745948 -840.08547232 870.02037055 -841.75390625 868.34375 C-845.8412237 864.23439081 -849.92277696 860.11937353 -854 856 C-852.49489416 852.48375115 -850.46451717 850.20944337 -847.77531946 847.50966245 C-846.88190556 846.60791059 -845.98849166 845.70615872 -845.06800461 844.77708104 C-844.06841735 843.77829152 -843.06873753 842.77959464 -842.06897545 841.78098011 C-841.00858266 840.71455869 -839.94862457 839.64770488 -838.88906348 838.58045712 C-835.95973413 835.63246543 -833.02416458 832.6907561 -830.08756335 829.75001054 C-826.89997381 826.55579155 -823.7180877 823.35589962 -820.53544676 820.15675133 C-814.21469863 813.80510239 -807.88846875 807.45893897 -801.5605237 801.11446097 C-796.29774274 795.83761798 -791.03730475 790.55844882 -785.77837944 785.27776337 C-785.02024729 784.51649614 -784.26211513 783.75522891 -783.48100927 782.97089297 C-781.93489331 781.41836763 -780.38878054 779.86583909 -778.84267092 778.31330743 C-758.80273141 758.19102266 -738.74909725 738.08240319 -718.69271898 717.97650516 C-716.09482225 715.37218795 -713.49696179 712.76783456 -710.89910799 710.16347453 C-677.86226097 677.04416681 -644.82003961 643.93022116 -611.76574804 610.82832318 C-603.36155638 602.41201363 -594.95759241 593.99547671 -586.55371094 585.57885742 C-585.62508186 584.64883273 -584.69645278 583.71880803 -583.73968342 582.76060077 C-553.6252623 552.60054631 -523.53791385 522.41373614 -493.46540932 492.21188486 C-462.55834633 461.1721279 -431.62703614 430.15674951 -400.66386528 399.17295641 C-396.29219951 394.79836892 -391.9207978 390.42351765 -387.5495491 386.04851341 C-386.68921812 385.18746409 -385.82888714 384.32641476 -384.94248553 383.43927303 C-371.08784045 369.57168482 -357.25880047 355.67883058 -343.43896501 341.77656209 C-329.55131392 327.80724404 -315.63640529 313.86555629 -301.69321571 299.95166866 C-293.407368 291.68159575 -285.14309921 283.39123893 -276.90815771 275.07046815 C-271.40618698 269.51529542 -265.87744061 263.98777088 -260.32608078 258.48195524 C-257.16286414 255.34314265 -254.01272734 252.19371585 -250.89462928 249.01002399 C-248.05483731 246.11096872 -245.18242503 243.24894632 -242.2806029 240.41202061 C-241.24605111 239.38872666 -240.2237862 238.35281177 -239.21619402 237.30296135 C-233.40382142 231.26289425 -228.94627335 228.27472479 -220.62076247 227.99428147 C-219.30653051 228.01057583 -217.99229855 228.0268702 -216.63824139 228.04365833 C-208.83702017 227.95004489 -202.36678851 224.49159754 -197 219 C-193.47866165 214.35065633 -191.02683923 209.78763931 -190 204 C-190.1801918 203.08528364 -190.36038361 202.17056728 -190.54603577 201.22813225 C-191.3152054 196.19191157 -191.38653492 192.23588336 -188.67991257 187.8712678 C-183.86295695 181.73161494 -178.14613049 176.39461631 -172.55859375 170.96923828 C-170.68361621 169.09821219 -168.81161057 167.22459883 -166.94290161 165.34735107 C-162.92207415 161.3192045 -158.87654105 157.31735995 -154.81277466 153.33255386 C-148.93753289 147.57139599 -143.1016232 141.77167301 -137.27439344 135.96200453 C-127.81786712 126.53607196 -118.33054293 117.14178698 -108.82324219 107.76708984 C-99.59130574 98.66378289 -90.37428123 89.5457953 -81.17675781 80.40771484 C-80.60922865 79.84386381 -80.04169949 79.28001278 -79.45697248 78.69907536 C-76.60975843 75.87013266 -73.76283339 73.04089933 -70.91605186 70.21152139 C-47.32198677 46.76244362 -23.67770934 23.36461982 0 0 Z " fill="#FEFEFE" transform="translate(1508,238)"/>
<path d="M0 0 C0.88010742 0.20761963 1.76021484 0.41523926 2.66699219 0.62915039 C3.45235352 0.86625732 4.23771484 1.10336426 5.046875 1.34765625 C5.95937012 1.61900391 6.87186523 1.89035156 7.81201172 2.16992188 C9.26631592 2.61174805 9.26631592 2.61174805 10.75 3.0625 C12.89300351 3.69997783 15.03624248 4.33666454 17.1796875 4.97265625 C18.29569336 5.30539551 19.41169922 5.63813477 20.56152344 5.98095703 C26.32281519 7.68840036 32.09777035 9.3474109 37.875 11 C39.04538818 11.33515625 40.21577637 11.6703125 41.42163086 12.015625 C49.36458993 14.27864476 57.33031149 16.44255785 65.3125 18.5625 C74.62079661 21.03489519 83.84070952 23.72252585 93.04052734 26.57080078 C100.6450664 28.91884535 108.28680887 31.03819309 116 33 C115.0135902 45.08351999 110.76886652 56.86057484 107.4230957 68.46337891 C105.36297869 75.6408496 103.4210719 82.84672788 101.5 90.0625 C99.23592009 98.555428 96.84150919 106.98824875 94.26733398 115.3918457 C92.21774297 122.13974038 90.37480828 128.93493967 88.5625 135.75 C86.10527466 144.98054451 83.53364473 154.16632584 80.83618164 163.3293457 C78.39929927 171.6112578 76.00882019 179.90573884 73.63735962 188.20657349 C73.22570343 189.64747855 72.81375712 191.08830078 72.40145874 192.52902222 C69.47829717 202.74464338 66.60401017 212.97355747 63.74298096 223.20674133 C60.74782622 233.9140726 57.7208604 244.61230308 54.68945312 255.30941772 C53.38803087 259.90248624 52.08792016 264.4959257 50.78771973 269.08934021 C48.64397391 276.66286776 46.50013239 284.23636763 44.35351562 291.80908203 C42.90064925 296.93474266 41.44933143 302.06083868 40 307.1875 C39.77645844 307.97809814 39.55291687 308.76869629 39.32260132 309.58325195 C36.19812483 320.64347754 33.16594418 331.72444921 30.20898438 342.83081055 C28.63387892 348.72542126 26.93706676 354.55664927 25.0859375 360.37109375 C23.48037934 365.7364302 22.06456372 371.15062085 20.625 376.5625 C18.52910905 384.43268199 16.37676542 392.2723018 14 400.0625 C9.47688044 414.90177088 5.3602271 429.85600373 1.37231445 444.84716797 C-1.39357483 455.24034723 -4.31845914 465.55797221 -7.50244141 475.83105469 C-9.64103257 482.74522348 -11.62565365 489.69069427 -13.49072266 496.68359375 C-14.8978375 501.8978375 -14.8978375 501.8978375 -16 503 C-22.83644337 502.51053633 -29.18462479 500.70605737 -35.75 498.8125 C-36.85545166 498.49861328 -37.96090332 498.18472656 -39.09985352 497.86132812 C-46.53316726 495.74043163 -53.9354442 493.52522873 -61.32910156 491.27075195 C-69.29567902 488.86441339 -77.33336775 486.73964275 -85.37573242 484.60327148 C-91.87206088 482.86872462 -98.32365054 481.03968336 -104.75 479.0625 C-113.02944155 476.51992015 -121.37539867 474.26890803 -129.75 472.0625 C-143.86933162 468.33995807 -157.88017669 464.30273096 -171.87695312 460.14550781 C-184.51817065 456.39758768 -197.19494971 452.8514246 -209.94393921 449.48699951 C-219.09069517 447.07081019 -228.18859089 444.53380544 -237.26098633 441.85327148 C-246.88259462 439.01632302 -256.53256671 436.28339058 -266.1875 433.5625 C-267.0277774 433.32563477 -267.86805481 433.08876953 -268.73379517 432.84472656 C-280.86945587 429.42582822 -293.01736452 426.05403728 -305.17431641 422.71166992 C-317.90367654 419.20841783 -330.61419569 415.64743629 -343.24584961 411.80517578 C-352.88314839 408.87380263 -362.5733096 406.20708223 -372.30883789 403.62109375 C-382.27258632 400.96072912 -392.14519602 398.03652538 -402 395 C-400.72575731 392.21162388 -399.40849848 390.15729643 -397.24729288 387.98853987 C-396.68294855 387.41739493 -396.11860422 386.84624999 -395.53715855 386.25779763 C-394.91579594 385.63911642 -394.29443334 385.02043522 -393.65424156 384.3830061 C-392.99248816 383.71624864 -392.33073476 383.04949118 -391.64892823 382.36252895 C-389.41451959 380.11372314 -387.17301217 377.87212871 -384.93148804 375.63041687 C-383.3181267 374.00974326 -381.70519194 372.3886449 -380.0926491 370.7671569 C-375.64777186 366.30027014 -371.19657495 361.83972735 -366.74428916 357.38022649 C-362.44018975 353.06824605 -358.14170171 348.75067504 -353.84246424 344.43384818 C-342.32355076 332.86846689 -330.79415293 321.31356081 -319.26282027 309.76056414 C-315.44465934 305.93520408 -311.62686571 302.10947777 -307.8093152 298.28350854 C-307.27046315 297.7434688 -306.73161109 297.20342905 -306.17643018 296.64702447 C-305.63701244 296.10641768 -305.09759469 295.56581089 -304.54183095 295.00882208 C-285.33907684 275.76375778 -266.13308993 256.52192448 -246.91887474 237.28830242 C-242.21524983 232.57985066 -237.51165687 227.87136699 -232.80810547 223.1628418 C-231.93155573 222.28537547 -231.93155573 222.28537547 -231.03729792 221.39018256 C-212.07909514 202.41191899 -193.138139 183.41656237 -174.20702304 164.4112819 C-154.7503055 144.87847981 -135.27916016 125.36018623 -115.78858455 105.86116562 C-113.03775637 103.10914464 -110.28707972 100.35697225 -107.53648758 97.60471535 C-106.72444367 96.79220073 -106.72444367 96.79220073 -105.89599484 95.96327168 C-97.17325118 87.23467533 -88.46567029 78.49110189 -79.76345513 69.74204442 C-71.02239231 60.95465623 -62.26493465 52.18388187 -53.49042647 43.42988767 C-48.73447639 38.68416672 -43.98671127 33.9308945 -39.25788879 29.15812302 C-34.93309722 24.79347787 -30.58827175 20.44990191 -26.22619422 16.1225296 C-24.64757441 14.54912559 -23.07661451 12.96799301 -21.51399927 11.37869307 C-19.39631171 9.22706861 -17.25304326 7.10476794 -15.10080528 4.9877882 C-14.49348967 4.35740116 -13.88617406 3.72701413 -13.26045495 3.07752445 C-8.66144328 -1.35686794 -6.18389993 -1.51746637 0 0 Z " fill="#FEFEFE" transform="translate(1787,731)"/>
<path d="M0 0 C7.16820542 1.53121875 14.23715956 3.3373774 21.3125 5.25 C23.03327759 5.7140625 23.03327759 5.7140625 24.78881836 6.1875 C32.39192463 8.25323366 39.94776696 10.44020243 47.48339844 12.73828125 C54.84743665 14.97708953 62.25279285 17.0520498 69.66821289 19.11328125 C78.95802118 21.69895272 88.22999946 24.34443836 97.5 27 C111.65227683 31.05221009 125.81930329 35.04827184 140 39 C144.10451595 40.14458568 148.20866859 41.29046238 152.3125 42.4375 C153.33537109 42.72318848 154.35824219 43.00887695 155.41210938 43.30322266 C160.94330349 44.85164646 166.46877969 46.41818386 171.98828125 48.0078125 C184.10701465 51.49756963 196.22553559 54.92823185 208.45556641 58.01000977 C213.26468445 59.23268969 217.95375635 60.61874359 222.64770508 62.2253418 C227.21694864 63.73008594 231.86377551 64.97023365 236.5 66.25 C238.73049869 66.8696839 240.96096659 67.48947866 243.19140625 68.109375 C244.32336426 68.42326172 245.45532227 68.73714844 246.62158203 69.06054688 C249.84194656 69.95604931 253.06009096 70.85901381 256.27734375 71.765625 C265.78205271 74.44254129 275.29188535 77.08802032 284.83496094 79.62524414 C295.13602773 82.36409263 305.34935135 85.28170702 315.52783203 88.4453125 C323.07880842 90.77149828 330.68775545 92.77887178 338.3449707 94.72192383 C346.37580569 96.78208235 354.2943028 99.1488957 362.20117188 101.640625 C367.76402268 103.38077818 373.29201145 104.81422641 379 106 C377.0441393 110.26948496 374.08935143 113.19767618 370.79759121 116.47643757 C369.82820355 117.45378071 369.82820355 117.45378071 368.8392323 118.45086816 C366.65752262 120.64798088 364.46871839 122.83788705 362.27989197 125.02790833 C360.70436796 126.61146039 359.12926908 128.19543552 357.55456072 129.77979869 C353.2142366 134.14407763 348.86758537 138.50200728 344.51983511 142.8588866 C340.31715479 147.0722483 336.11912271 151.29023517 331.92080141 155.50793922 C320.67217406 166.80781382 309.41295571 178.09711098 298.15153143 189.38423014 C294.42257275 193.12169785 290.69392576 196.85947626 286.96547627 200.59745193 C267.14601819 220.46742137 247.32335429 240.33418665 227.49104977 260.19133472 C222.8967367 264.79149054 218.30246981 269.39169246 213.70825195 273.99194336 C213.13746981 274.56346732 212.56668766 275.13499129 211.97860908 275.72383416 C193.46253994 294.26422747 174.96535962 312.82331988 156.47885239 331.39318597 C137.47815411 350.47940536 118.46139527 369.54946398 99.42312444 388.59820948 C96.73584637 391.28696849 94.0487386 393.97589764 91.36172676 396.66492271 C90.83287993 397.19415077 90.30403311 397.72337883 89.75916062 398.26864409 C81.23979819 406.79504076 72.73735101 415.33811537 64.24090326 423.88733949 C55.705529 432.47493146 47.15196176 441.04405552 38.57945596 449.5945842 C33.93347671 454.2296429 29.29653392 458.87313045 24.68071556 463.53825569 C20.45852124 467.80517546 16.21410911 472.04857184 11.95048291 476.2740806 C10.40865343 477.81027341 8.87531697 479.35504537 7.35128903 480.90890036 C5.28416155 483.01400182 3.18882035 485.08617633 1.08329678 487.15276814 C0.49304729 487.76871606 -0.0972022 488.38466399 -0.70533803 489.01927701 C-3.19353536 491.40690995 -4.81033428 492.92011477 -8.33218753 493.15660479 C-10.62118183 492.92187918 -12.76588606 492.54358438 -15 492 C-16.0211792 491.77143311 -17.0423584 491.54286621 -18.09448242 491.30737305 C-19.46117065 490.91352417 -19.46117065 490.91352417 -20.85546875 490.51171875 C-22.40911133 490.06989258 -22.40911133 490.06989258 -23.99414062 489.61914062 C-25.57485352 489.15797852 -25.57485352 489.15797852 -27.1875 488.6875 C-28.73920898 488.24374023 -28.73920898 488.24374023 -30.32226562 487.79101562 C-33.54997581 486.8668166 -36.77495846 485.93346398 -40 485 C-47.21471589 482.92670969 -54.43458267 480.87278406 -61.6640625 478.8515625 C-86.04484246 472.03392821 -86.04484246 472.03392821 -96.5625 468.8125 C-107.28281085 465.53081883 -118.13538274 462.75903318 -129 460 C-127.77896613 453.4285235 -126.26330748 447.03478671 -124.375 440.625 C-123.83959838 438.7800191 -123.30445611 436.93496293 -122.76953125 435.08984375 C-122.34148193 433.6200708 -122.34148193 433.6200708 -121.90478516 432.12060547 C-120.2699817 426.48216572 -118.66992098 420.83379358 -117.0625 415.1875 C-114.83896613 407.38796232 -112.59391781 399.59568069 -110.30297852 391.81567383 C-107.31710868 381.67045459 -104.48925342 371.49373002 -101.76538086 361.27514648 C-98.50603262 349.07896291 -95.06684336 336.93447797 -91.63319397 324.78651428 C-89.8470561 318.46534514 -88.07927286 312.1391021 -86.3125 305.8125 C-82.81122569 293.29028367 -79.24307564 280.78755263 -75.64453125 268.29296875 C-73.27041236 260.0331887 -70.92922993 251.7654353 -68.64453125 243.48046875 C-67.7840622 240.36192171 -66.9234057 237.24342652 -66.0625 234.125 C-65.84668274 233.34297211 -65.63086548 232.56094421 -65.4085083 231.75521851 C-62.51345045 221.27895653 -59.48737655 210.85838006 -56.26416016 200.47753906 C-54.28461002 194.06090262 -52.59841471 187.6207744 -51.02734375 181.09375 C-49.19072562 173.60556888 -46.95967877 166.21777098 -44.81323242 158.81396484 C-42.55489644 150.99962063 -40.334418 143.17432823 -38.10546875 135.3515625 C-37.46625028 133.10934522 -36.82692446 130.86715855 -36.1875 128.625 C-35.84203125 127.41312012 -35.4965625 126.20124023 -35.140625 124.95263672 C-33.23926884 118.29527841 -31.31219106 111.64659709 -29.3503418 105.00683594 C-26.54483544 95.49888386 -23.8993248 85.96145491 -21.375 76.375 C-17.818968 62.8732473 -14.05608744 49.43326548 -10.25 36 C-9.96968933 35.01054382 -9.68937866 34.02108765 -9.40057373 33.00164795 C-6.28125847 21.9970476 -3.14787846 10.99646365 0 0 Z " fill="#FEFEFE" transform="translate(732,440)"/>
<path d="M0 0 C4.63613391 2.13975411 6.92795599 4.75779746 9.12597656 9.34619141 C11.03772714 15.15086424 10.98399122 21.37382366 11.25 27.4375 C11.32562003 28.87505509 11.40228407 30.31255564 11.47998047 31.75 C11.98474989 41.49932018 12.26461986 51.23846751 12 61 C13.67630493 61.17764893 13.67630493 61.17764893 15.38647461 61.35888672 C20.28858685 61.97481742 25.02213531 63.08289624 29.81640625 64.2578125 C30.742789 64.48173172 31.66917175 64.70565094 32.62362671 64.93635559 C35.60477487 65.65981943 38.58384763 66.39133219 41.5625 67.125 C42.57289337 67.37299347 43.58328674 67.62098694 44.6242981 67.87649536 C56.11513551 70.7033893 67.60115221 73.5341744 78.9375 76.9375 C79.80898682 77.1948291 80.68047363 77.4521582 81.57836914 77.71728516 C86.33628662 79.20769368 89.98920466 81.03286093 94 84 C94.78375 84.53625 95.5675 85.0725 96.375 85.625 C98.62318657 88.91081114 98.67254503 91.52688234 98.52734375 95.453125 C97.6605528 99.63940424 95.30101081 102.37364834 92 105 C86.03628157 106.98790614 80.76582319 106.4906031 74.953125 104.1875 C68.97680855 101.93139057 62.93047076 100.28218673 56.75 98.6875 C46.85860136 96.08664275 37.0593204 93.27375019 27.29785156 90.22143555 C26.40936523 89.94468994 25.52087891 89.66794434 24.60546875 89.3828125 C23.83356201 89.13934082 23.06165527 88.89586914 22.26635742 88.64501953 C19.86177705 87.96066088 17.45663618 87.45928062 15 87 C14.95120277 89.51034616 14.95325186 92.00098697 15.0234375 94.51171875 C15 98 15 98 14.4140625 101.70703125 C13.68726072 108.10399049 14.20230004 112.67176697 18.24023438 117.90136719 C23.01322164 123.25761605 28.30932248 128.06461966 33.61328125 132.8828125 C38.82721029 137.65574077 42.56396429 141.38713269 43.4375 148.625 C42.82065804 153.38349508 41.47783445 155.80952225 37.75 158.8125 C34.06585613 160.40338031 31.99900056 160.59985008 28 160 C21.29240173 156.42717389 15.92022454 151.35755903 10.60620117 146.01025391 C9.42880875 144.84315636 9.42880875 144.84315636 8.22763062 143.65248108 C5.65840247 141.10142102 3.10027417 138.53957031 0.54296875 135.9765625 C-1.2502614 134.18789772 -3.04386174 132.39960402 -4.83781433 130.61166382 C-8.5856447 126.87274407 -12.327892 123.12835231 -16.06616211 119.37988281 C-20.37446888 115.06008079 -24.69543165 110.7532451 -29.02284795 106.45259345 C-33.20560633 102.29472898 -37.37708521 98.12568085 -41.54419518 93.95212936 C-43.31010677 92.18606472 -45.07911337 90.42308905 -46.85129738 88.66331863 C-49.32831757 86.20121852 -51.79218972 83.72665045 -54.25317383 81.24853516 C-54.98206314 80.52931381 -55.71095245 79.81009247 -56.46192932 79.06907654 C-61.64923076 73.80609305 -65.41131828 68.79372661 -66.5625 61.375 C-65.80512642 56.83075852 -64.2354137 55.2354137 -61 52 C-57.87143524 50.43571762 -55.47287869 50.71992914 -52 51 C-45.14525971 53.32990823 -40.51115313 57.95716598 -35.5625 63.046875 C-34.79695801 63.81807678 -34.03141602 64.58927856 -33.24267578 65.3838501 C-30.81883168 67.8299421 -28.40933178 70.28962101 -26 72.75 C-24.35119106 74.41888871 -22.70146051 76.08686743 -21.05078125 77.75390625 C-17.02313142 81.82546966 -13.00714191 85.9082569 -9 90 C-9.59453254 77.11585406 -10.6662446 64.32716389 -12 51.5 C-12.18006818 49.73962223 -12.35975684 47.9792056 -12.5390625 46.21875 C-13.13058089 40.42212928 -13.72287629 34.62559546 -14.33447266 28.83105469 C-16.31260004 9.83090607 -16.31260004 9.83090607 -13.953125 4.7421875 C-10.02299439 -0.04332447 -5.93675064 -0.76424588 0 0 Z " fill="#030303" transform="translate(1190,791)"/>
<path d="M0 0 C3.27365512 2.09849687 6.24483773 4.48967546 8 8 C8.5494758 11.43422374 8.77011785 13.90572663 6.70542908 16.83947754 C6.13482254 17.46286011 5.564216 18.08624268 4.97631836 18.72851562 C4.33862518 19.42710693 3.70093201 20.12569824 3.04391479 20.84545898 C-0.28991274 24.35972885 -3.68341301 27.80614468 -7.12109375 31.21875 C-8.23823509 32.33376892 -8.23823509 32.33376892 -9.37794495 33.47131348 C-11.72876745 35.81659301 -14.08306431 38.15834836 -16.4375 40.5 C-18.04385199 42.10132961 -19.64997397 43.70288998 -21.25585938 45.3046875 C-25.16791985 49.20579473 -29.08282952 53.1040242 -33 57 C-31.30145963 60.62083128 -29.28895218 62.94255354 -26.4296875 65.765625 C-25.08583984 67.09980469 -25.08583984 67.09980469 -23.71484375 68.4609375 C-22.77769531 69.38132812 -21.84054687 70.30171875 -20.875 71.25 C-19.92011363 72.19484856 -18.96568141 73.14015633 -18.01171875 74.0859375 C-15.67890913 76.39518338 -13.34155914 78.69963203 -11 81 C-7.87281859 79.61738572 -5.81031198 78.03226816 -3.4440918 75.57592773 C-2.76626144 74.87858017 -2.08843109 74.1812326 -1.39006042 73.4627533 C-0.66708267 72.71063065 0.05589508 71.958508 0.80078125 71.18359375 C2.35031619 69.59902705 3.90046558 68.01506102 5.45117188 66.43164062 C7.88695195 63.93392769 10.3178129 61.43198389 12.73803711 58.91918945 C15.07876478 56.49371663 17.4380455 54.08760657 19.80078125 51.68359375 C20.51768631 50.92944687 21.23459137 50.17529999 21.97322083 49.39830017 C25.26232588 46.07613322 27.22765384 44.21378985 31.80932617 42.94555664 C36.52078034 43.0259495 39.40967931 44.56871138 42.875 47.6875 C44.5821701 51.19668299 44.95616409 54.2599381 44 58 C42.66369629 59.9118042 42.66369629 59.9118042 40.91601562 61.81542969 C39.96166626 62.85781799 39.96166626 62.85781799 38.98803711 63.92126465 C35.9626619 67.08466355 32.86589671 70.16124934 29.71875 73.203125 C28.36921395 74.52545232 27.02027186 75.84838606 25.671875 77.171875 C23.57279199 79.2274332 21.47018426 81.2788101 19.35742188 83.3203125 C17.29982861 85.31165391 15.2582269 87.31825605 13.21875 89.328125 C12.57933472 89.9385968 11.93991943 90.5490686 11.28112793 91.17803955 C9.31922269 93.06910545 9.31922269 93.06910545 7 96 C7.42594233 100.37870961 10.33720203 102.71984487 13.34765625 105.640625 C13.87894638 106.16767029 14.41023651 106.69471558 14.95762634 107.23773193 C16.65232825 108.91567187 18.35717217 110.58286728 20.0625 112.25 C21.21487745 113.38732745 22.36657852 114.52534066 23.51757812 115.6640625 C26.33727184 118.45071992 29.16610588 121.22778792 32 124 C35.25575752 122.57405147 37.39254314 120.84258057 39.87890625 118.31640625 C40.62648193 117.56222412 41.37405762 116.80804199 42.14428711 116.03100586 C42.94229736 115.21639893 43.74030762 114.40179199 44.5625 113.5625 C45.39080322 112.72662354 46.21910645 111.89074707 47.07250977 111.02954102 C49.719847 108.35776298 52.36066843 105.67968538 55 103 C58.47344369 99.47344941 61.95336802 95.95348767 65.4375 92.4375 C66.63451538 91.2155896 66.63451538 91.2155896 67.85571289 89.96899414 C68.60328857 89.21481201 69.35086426 88.46062988 70.12109375 87.68359375 C70.7752124 87.01900146 71.42933105 86.35440918 72.10327148 85.66967773 C75.0922817 83.03847154 77.37382539 82.09451692 81.3125 81.5 C86.22438844 82.16601877 88.70893873 84.41144167 92 88 C93.5547669 91.10953379 93.28644437 93.56266761 93 97 C90.52024161 101.20817886 87.64413192 104.60807443 84.203125 108.05566406 C83.74079468 108.52149902 83.27846436 108.98733398 82.80212402 109.46728516 C81.28970193 110.98842962 79.77017828 112.50223483 78.25 114.015625 C77.18883545 115.07813847 76.1279678 116.14094854 75.06738281 117.20404053 C72.85154142 119.42281992 70.6321498 121.63796816 68.41015625 123.85058594 C65.56535177 126.68396878 62.72965845 129.52627425 59.89654541 132.37134171 C57.7108447 134.56427303 55.5203985 136.75241423 53.32849121 138.93914032 C52.28085614 139.98544367 51.23469798 141.03322802 50.19006348 142.08252716 C48.73045696 143.54722168 47.26457705 145.00533775 45.796875 146.46191406 C44.96510742 147.29209045 44.13333984 148.12226685 43.27636719 148.9776001 C39.86461394 152.00871453 37.18162399 153.29505923 32.625 153.375 C31.89539062 153.40335938 31.16578125 153.43171875 30.4140625 153.4609375 C23.6324089 152.16605866 18.58685266 145.8714231 13.9309082 141.18969727 C13.14481171 140.40710541 12.35871521 139.62451355 11.54879761 138.81820679 C8.96108366 136.23926962 6.38072395 133.65311597 3.80078125 131.06640625 C2.00079596 129.26776863 0.2005139 127.46942796 -1.60005188 125.67137146 C-5.36822243 121.90614657 -9.13285414 118.13743191 -12.89477539 114.3659668 C-17.23769575 110.01215566 -21.58778455 105.6656067 -25.94165105 101.32274395 C-30.13974275 97.13483606 -34.33218018 92.9413029 -38.52225685 88.74537468 C-40.3017884 86.96450927 -42.082806 85.18512751 -43.86533165 83.40725899 C-46.35479041 80.92287928 -48.83774777 78.4321783 -51.3190918 75.93969727 C-52.05628952 75.206548 -52.79348724 74.47339874 -53.55302429 73.71803284 C-61.67867557 65.52469198 -61.67867557 65.52469198 -62.4375 59.5625 C-61.66114408 53.24074464 -57.45533873 49.20513062 -53.07958984 44.83666992 C-52.36664513 44.12087769 -52.36664513 44.12087769 -51.63929749 43.390625 C-50.08467034 41.83232665 -48.52302164 40.28128894 -46.9609375 38.73046875 C-45.87248843 37.64321314 -44.78441026 36.55558612 -43.69668579 35.46760559 C-41.42522203 33.1977001 -39.15045571 30.93117674 -36.87304688 28.66723633 C-33.95131103 25.76256037 -31.03627243 22.85127383 -28.12343407 19.93767834 C-25.88128924 17.69580498 -23.63655149 15.45654356 -21.39091873 13.21816444 C-20.31460305 12.14503319 -19.23889395 11.07129321 -18.16379929 9.99693871 C-16.66557292 8.50087426 -15.16410452 7.0081449 -13.66162109 5.51635742 C-12.8076474 4.66619553 -11.95367371 3.81603363 -11.07382202 2.94010925 C-7.46720898 -0.43396203 -4.89767277 -0.56202802 0 0 Z " fill="#020202" transform="translate(1274,709)"/>
<path d="M0 0 C0.79083984 0.00563965 1.58167969 0.0112793 2.39648438 0.01708984 C12.65001854 0.22982751 20.84663315 3.14904439 29.125 9.3125 C32.31252873 12.72770935 33.37733568 15.30574998 33.6875 19.875 C33.50372702 23.2748002 33.08570388 24.37461322 31.1875 27.375 C26.94128395 30.06138158 24.02677706 30.13309379 19.125 29.3125 C17.05193758 28.67944162 14.98980087 28.00993233 12.9375 27.3125 C5.10024752 24.73070874 -3.94640403 23.46128701 -11.875 26.5 C-18.45805746 30.47726388 -23.08343522 34.68698661 -25.4609375 42.15234375 C-27.93837668 55.07709723 -24.27411781 66.77768561 -17.0390625 77.4609375 C-6.94003967 90.76831415 7.82734008 106.67518862 25.125 109.3125 C33.04762962 109.93129694 39.47592723 109.93330057 46.125 105.3125 C47.176875 104.61125 48.22875 103.91 49.3125 103.1875 C55.45443831 97.584033 57.47535953 90.83217268 57.875 82.6875 C57.86661185 75.65151734 55.8317144 70.00641669 52.61621094 63.80419922 C50.37375882 59.43449726 49.56498675 56.21559475 50.125 51.3125 C53.07479554 47.74169487 55.22544775 45.52835821 59.875 45 C65.27943189 45.51965691 68.58116939 48.53808559 72.1875 52.375 C81.28734286 63.48110743 83.34396068 77.43804702 82.125 91.3125 C79.71611809 105.39988534 70.80726667 116.6715186 59.6328125 125.21875 C48.44555671 132.8714815 36.62233263 135.86780386 23.125 134.3125 C-1.53792841 129.3122959 -23.57440324 112.62054724 -37.72119141 92.08203125 C-47.93604946 76.41607883 -53.35969259 60.02280037 -50.37890625 41.17578125 C-46.41228795 25.46617996 -36.63381666 13.41678506 -22.8125 5.06640625 C-15.49800955 1.16629708 -8.19749589 -0.06146366 0 0 Z " fill="#030303" transform="translate(1103.875,889.6875)"/>
<path d="M0 0 C4.58738919 1.26576468 6.70749534 4.84053988 9.22265625 8.61328125 C9.75087409 13.27920553 9.34782713 16.01120802 6.64892578 19.84936523 C3.55661837 23.67372693 -0.01656536 27.05319128 -3.52734375 30.48828125 C-4.71650391 31.66390625 -4.71650391 31.66390625 -5.9296875 32.86328125 C-7.87442522 34.78458839 -9.82369128 36.70104672 -11.77734375 38.61328125 C-10.47661208 41.48189696 -9.10433264 43.53146172 -6.86831665 45.74263 C-6.27394302 46.33541748 -5.6795694 46.92820496 -5.06718445 47.53895569 C-4.41675674 48.17747971 -3.76632904 48.81600372 -3.09619141 49.47387695 C-2.40982101 50.15572052 -1.72345062 50.83756409 -1.01628113 51.54006958 C0.473894 53.01929129 1.96633605 54.49623199 3.46076584 55.97115517 C5.82785321 58.30807651 8.18819898 60.65161523 10.54678345 62.99711609 C17.25384495 69.66443253 23.97345017 76.3190556 30.69628906 82.97045898 C34.8092293 87.04061537 38.91478004 91.11811042 43.01610184 95.19997215 C44.57845655 96.75177741 46.14371817 98.3006618 47.71195602 99.84652138 C49.90909435 102.01236345 52.09678138 104.18735977 54.28271484 106.36450195 C54.92909409 106.99695328 55.57547333 107.6294046 56.24143982 108.28102112 C60.4731638 112.52144584 64.27253474 116.8848734 65.7890625 122.8359375 C65.78095992 126.65225171 65.23406961 129.10715766 62.91015625 132.05078125 C59.85138867 134.96728057 58.22266759 135.47327966 54.09765625 136.05078125 C45.70656065 135.10339949 39.39007886 128.21874229 33.68334961 122.41455078 C32.98953186 121.72117111 32.29571411 121.02779144 31.58087158 120.31340027 C29.31755185 118.04801119 27.0650106 115.77222629 24.8125 113.49609375 C23.23418403 111.91217525 21.65519897 110.3289232 20.07557678 108.74630737 C15.94095123 104.60028492 11.81541884 100.44532979 7.69177246 96.28839111 C3.47384208 92.03964842 -0.75270512 87.79949635 -4.97851562 83.55859375 C-13.25320422 75.25183203 -21.51830327 66.93559932 -29.77734375 58.61328125 C-32.94877363 60.12180573 -35.02383287 61.65221191 -37.45703125 64.203125 C-38.13894531 64.90501953 -38.82085938 65.60691406 -39.5234375 66.33007812 C-40.93701696 67.8046101 -42.34849539 69.28115927 -43.7578125 70.75976562 C-48.2860178 75.41162248 -52.14040037 78.91684528 -58.71484375 80.17578125 C-63.15778646 79.35973055 -65.72748125 76.84393457 -68.77734375 73.61328125 C-71.39828395 69.68187095 -71.59485877 68.29541271 -70.77734375 63.61328125 C-69.16854858 61.47302246 -69.16854858 61.47302246 -66.99365234 59.13476562 C-66.17346619 58.25256348 -65.35328003 57.37036133 -64.50823975 56.46142578 C-59.61139617 51.35434068 -54.63710872 46.3297158 -49.62890625 41.33203125 C-48.48295791 40.18540746 -47.3371579 39.03863542 -46.1914978 37.89172363 C-43.8114114 35.51017577 -41.42955808 33.1304138 -39.04638672 30.75195312 C-35.99321803 27.70452656 -32.94462305 24.65256986 -29.89730263 21.59929657 C-27.54169026 19.24007517 -25.18370718 16.88323489 -22.82499313 14.52711487 C-21.69912734 13.40191504 -20.57400084 12.27597496 -19.44963455 11.14927673 C-17.88500725 9.58211237 -16.31721523 8.01818437 -14.74853516 6.45507812 C-13.85856842 5.56590698 -12.96860168 4.67673584 -12.05166626 3.76062012 C-7.7704123 -0.28159596 -5.60180377 -0.75601579 0 0 Z " fill="#030303" transform="translate(1352.77734375,631.38671875)"/>
<path d="M0 0 C4.58738919 1.26576468 6.70749534 4.84053988 9.22265625 8.61328125 C9.75018628 11.97628518 9.90868086 14.44864559 8.13818359 17.4543457 C4.22192119 22.56231401 -0.04621185 27.12319531 -4.65234375 31.61328125 C-5.34070313 32.29261719 -6.0290625 32.97195313 -6.73828125 33.671875 C-8.41342221 35.32375011 -10.09307735 36.9707205 -11.77734375 38.61328125 C-10.47661208 41.48189696 -9.10433264 43.53146172 -6.86831665 45.74263 C-6.27394302 46.33541748 -5.6795694 46.92820496 -5.06718445 47.53895569 C-4.41675674 48.17747971 -3.76632904 48.81600372 -3.09619141 49.47387695 C-2.40982101 50.15572052 -1.72345062 50.83756409 -1.01628113 51.54006958 C0.473894 53.01929129 1.96633605 54.49623199 3.46076584 55.97115517 C5.82785321 58.30807651 8.18819898 60.65161523 10.54678345 62.99711609 C17.25384495 69.66443253 23.97345017 76.3190556 30.69628906 82.97045898 C34.8092293 87.04061537 38.91478004 91.11811042 43.01610184 95.19997215 C44.57845655 96.75177741 46.14371817 98.3006618 47.71195602 99.84652138 C49.90909435 102.01236345 52.09678138 104.18735977 54.28271484 106.36450195 C54.92909409 106.99695328 55.57547333 107.6294046 56.24143982 108.28102112 C60.92522621 112.97443773 64.83896813 117.43415107 65.66015625 124.23828125 C65.04331429 128.99677633 63.7004907 131.4228035 59.97265625 134.42578125 C56.28851238 136.01666156 54.22165681 136.21313133 50.22265625 135.61328125 C43.87123201 132.19394065 38.70512037 127.52208575 33.68334961 122.41455078 C32.98953186 121.72117111 32.29571411 121.02779144 31.58087158 120.31340027 C29.31755185 118.04801119 27.0650106 115.77222629 24.8125 113.49609375 C23.23418403 111.91217525 21.65519897 110.3289232 20.07557678 108.74630737 C15.94095123 104.60028492 11.81541884 100.44532979 7.69177246 96.28839111 C3.47384208 92.03964842 -0.75270512 87.79949635 -4.97851562 83.55859375 C-13.25320422 75.25183203 -21.51830327 66.93559932 -29.77734375 58.61328125 C-32.94877363 60.12180573 -35.02383287 61.65221191 -37.45703125 64.203125 C-38.13894531 64.90501953 -38.82085938 65.60691406 -39.5234375 66.33007812 C-40.93701696 67.8046101 -42.34849539 69.28115927 -43.7578125 70.75976562 C-48.2860178 75.41162248 -52.14040037 78.91684528 -58.71484375 80.17578125 C-63.15778646 79.35973055 -65.72748125 76.84393457 -68.77734375 73.61328125 C-71.13354812 70.07897469 -71.26725988 68.77756838 -70.77734375 64.61328125 C-68.10574085 60.08611327 -64.85511861 56.40749393 -61.13842773 52.73144531 C-60.58670898 52.17782822 -60.03499023 51.62421112 -59.46655273 51.05381775 C-57.6570176 49.2406032 -55.8404283 47.43464705 -54.0234375 45.62890625 C-52.75802218 44.36468416 -51.49297753 43.10009094 -50.22828674 41.83514404 C-47.58439314 39.19281026 -44.93718682 36.55385741 -42.28735352 33.91748047 C-38.89042613 30.53758566 -35.50016219 27.15110193 -32.11212063 23.7623024 C-29.50363975 21.15409328 -26.89256218 18.54849717 -24.28059578 15.94377899 C-23.02926946 14.69563427 -21.77854737 13.44688347 -20.52844048 12.1975174 C-18.78374893 10.45499231 -17.03580537 8.71579853 -15.28686523 6.97753906 C-14.77094315 6.46116379 -14.25502106 5.94478851 -13.72346497 5.4127655 C-8.96324311 0.69502144 -6.58503134 -0.88871155 0 0 Z " fill="#030303" transform="translate(988.77734375,994.38671875)"/>
<path d="M0 0 C2.99719159 2.03692632 5.44409224 4.43963167 8 7 C9.06724591 7.99928369 10.13641715 8.99651327 11.20703125 9.9921875 C19.50754252 17.82186407 25.9261172 24.36815104 26.57788086 36.25 C26.74480474 44.22083173 25.62487823 50.31212944 21 57 C20.443125 57.9075 19.88625 58.815 19.3125 59.75 C13.40365742 65.49914413 5.18014141 70.27542035 -3.1875 70.3125 C-18.80626415 69.99675679 -27.78952047 61.05376533 -38.09375 50.38671875 C-44.69460713 43.2250346 -47.11676759 36.67074361 -47.6875 27 C-47.28864869 17.49054517 -43.57685589 10.07221295 -36.75 3.5 C-25.51708991 -5.51638268 -12.80923509 -6.57186562 0 0 Z " fill="#020202" transform="translate(1413,518)"/>
<path d="M0 0 C0.99193359 -0.05607422 0.99193359 -0.05607422 2.00390625 -0.11328125 C10.48185672 -0.25973337 17.00469491 3.86859791 23.11328125 9.44921875 C24.65107491 10.9739248 26.17579016 12.51192873 27.6875 14.0625 C28.45900391 14.81466797 29.23050781 15.56683594 30.02539062 16.34179688 C36.68020524 23.05373436 42.43675484 31.1644387 42.625 40.9375 C42.49084268 50.1541082 39.76045836 57.67243084 33.375 64.375 C25.374715 71.67960805 17.7806608 74.180322 6.94140625 73.8125 C-3.68540842 72.50888199 -10.18204388 66.33694896 -17.5625 59.125 C-18.28477783 58.4225415 -19.00705566 57.72008301 -19.7512207 56.99633789 C-28.0868804 48.46775468 -32.02155545 39.70870589 -31.90234375 27.80078125 C-31.24994415 19.74226784 -27.73918722 12.68605246 -21.625 7.375 C-14.31970553 2.26591747 -8.88966432 0.184155 0 0 Z " fill="#010101" transform="translate(1457.625,574.625)"/>
<path d="M0 0 C1.09183594 -0.01417969 2.18367188 -0.02835938 3.30859375 -0.04296875 C14.01044117 0.71502525 21.53283786 7.64436773 28.75 14.9375 C29.43513672 15.60265625 30.12027344 16.2678125 30.82617188 16.953125 C38.18764739 24.32168567 42.57519817 31.68330918 43 42.1875 C42.91854368 51.24951604 39.30638545 58.57629044 33.1875 65.1875 C25.65178109 72.03815355 17.7939018 73.53063139 7.875 73.38671875 C-2.19639853 72.78100964 -7.42264378 68.11872157 -14.4375 61.1875 C-15.39527344 60.30191406 -16.35304688 59.41632812 -17.33984375 58.50390625 C-24.28282249 52.00094284 -30.75805586 44.5054475 -31.67578125 34.62109375 C-31.92973888 24.36922516 -29.82924362 17.63793112 -23.125 9.8125 C-16.1812737 2.54952192 -10.04091266 0.05913376 0 0 Z " fill="#010101" transform="translate(1517.4375,634.8125)"/>
<path d="M0 0 C5.81138243 3.84652939 10.83040079 8.46546132 15.75 13.375 C16.39582031 13.99632812 17.04164062 14.61765625 17.70703125 15.2578125 C24.66315649 22.17108687 28.06170188 29.1672589 28.375 39 C28.28613395 47.78786451 25.72053703 55.53295169 19.625 62 C12.12628621 68.6709337 3.8604333 71.5611827 -6.171875 71.30078125 C-16.05619115 70.24954873 -22.16077353 64.76701744 -29 58 C-29.97618662 57.08154662 -30.95409835 56.16492387 -31.93359375 55.25 C-39.25591628 48.31026792 -44.42222844 42.01579749 -45.2734375 31.6796875 C-45.49726949 23.29459685 -44.78721985 17.12548619 -40 10 C-39.071875 8.6078125 -39.071875 8.6078125 -38.125 7.1875 C-27.89082186 -3.34768338 -13.5459829 -6.51682687 0 0 Z " fill="#010101" transform="translate(1351,457)"/>
<path d="M0 0 C3.64040041 2.75391434 6.77809729 5.83818105 9.9375 9.125 C10.74767578 9.91648437 11.55785156 10.70796875 12.39257812 11.5234375 C18.77716279 18.00737279 23.12008931 24.70414001 24.62890625 33.78515625 C24.41829802 44.17929186 22.52992463 52.51007823 15.1484375 60.171875 C8.25131078 66.04070282 1.32339668 68.52894591 -7.625 68.6875 C-8.30481934 68.70683594 -8.98463867 68.72617187 -9.68505859 68.74609375 C-20.59510083 68.49558812 -28.14508227 61.64527714 -35.375 54.1875 C-36.15488281 53.41857422 -36.93476562 52.64964844 -37.73828125 51.85742188 C-46.07770084 43.41108665 -49.37278879 35.55905926 -49.453125 23.69189453 C-49.27408486 15.55073297 -46.55841209 9.97617117 -41.13671875 3.91796875 C-29.10501934 -7.53505173 -14.2896748 -7.79759827 0 0 Z " fill="#010101" transform="translate(1596,700)"/>
<path d="M0 0 C6.72150498 3.37939082 12.06382204 8.63506793 17.30200195 13.9296875 C18.07717667 14.70121155 18.85235138 15.4727356 19.65101624 16.26763916 C22.18753367 18.79611194 24.7131177 21.33519214 27.23828125 23.875 C29.00894399 25.64618194 30.78012649 27.41684442 32.55180359 29.18701172 C36.72465534 33.35996433 40.89008904 37.54021709 45.05261153 41.72347069 C48.83887906 45.52729139 52.63418638 49.32198206 56.43200713 53.11426353 C60.55818928 57.23473744 64.67860259 61.36093237 68.79637718 65.48980713 C70.54172936 67.23900182 72.28842399 68.9868581 74.0364933 70.7333374 C76.4776268 73.17409935 78.91215008 75.62126827 81.3449707 78.0703125 C82.06450928 78.78737366 82.78404785 79.50443481 83.52539062 80.2432251 C93.56377057 90.38845206 93.56377057 90.38845206 93.625 97.5625 C93.44642761 101.65850422 93.1613774 102.78341454 90.625 106.1875 C86.30277478 108.9435542 81.90699552 109.04987175 77 108 C70.52780726 104.07676542 65.10369066 98.39715383 59.78979492 93.06445312 C59.02437378 92.30414291 58.25895264 91.5438327 57.47033691 90.76048279 C54.96857605 88.27250227 52.47419106 85.77728571 49.98046875 83.28125 C48.23193305 81.53660587 46.48317556 79.79218399 44.73420715 78.04797363 C41.08217349 74.40337603 37.43400578 70.7549609 33.78833008 67.10400391 C29.12187012 62.43173457 24.44410702 57.77096578 19.76317883 53.11319733 C16.15397143 49.51873107 12.55172458 45.91735188 8.95144081 42.31394958 C7.22944125 40.59246243 5.50508522 38.87332903 3.77831078 37.15663147 C1.36603732 34.75672006 -1.03646852 32.34742669 -3.43676758 29.93554688 C-4.14695541 29.23300278 -4.85714325 28.53045868 -5.58885193 27.80662537 C-10.61696268 22.72485031 -15.57466276 17.44023434 -15.5625 9.875 C-15.38426693 6.33194253 -15.0076461 5.0127435 -13.125 1.875 C-8.58961123 -0.84623326 -5.14211679 -0.96628204 0 0 Z " fill="#040404" transform="translate(1016,967)"/>
</svg>
